<svg width="166" height="17" viewBox="0 0 166 17" fill="none" xmlns="http://www.w3.org/2000/svg">
    <path d="M3.97 1.038H0V16.49h3.97v-6.066h5.12v6.066h3.94V1.039H9.09v6.014H3.97V1.038zM20.25 16.78c2.214 0 3.647-.995 4.379-2.434h.117v2.143h3.94V6.068c0-3.682-3.023-5.231-6.359-5.231-3.589 0-5.949 1.77-6.524 4.587l3.842.322c.283-1.026 1.17-1.78 2.663-1.78 1.414 0 2.223.734 2.223 2.001v.06c0 .996-1.024 1.127-3.628 1.389-2.965.281-5.627 1.307-5.627 4.758 0 3.058 2.116 4.607 4.974 4.607zm1.19-2.957c-1.278 0-2.195-.613-2.195-1.79 0-1.207.966-1.8 2.429-2.012.907-.13 2.39-.352 2.886-.694v1.64c0 1.62-1.297 2.856-3.12 2.856zM37.716 16.489h7.373c3.745 0 5.832-1.58 5.832-4.215 0-2.032-1.56-3.641-4.252-3.842 2.146-.383 3.423-1.55 3.423-3.22 0-2.675-2.292-4.174-5.988-4.174h-6.388V16.49zm3.872-3.209V9.91h3.501c1.15 0 1.853.674 1.853 1.77 0 .997-.702 1.6-1.853 1.6h-3.501zm0-5.884V4.317h2.516c1.287 0 2.077.574 2.077 1.52 0 .975-.75 1.559-1.99 1.559h-2.603zM60.033 16.79c3.99 0 6.496-2.413 6.69-5.964h-3.92c-.244 1.65-1.297 2.575-2.72 2.575-1.942 0-3.2-1.68-3.2-4.637 0-2.918 1.268-4.587 3.2-4.587 1.52 0 2.496 1.036 2.72 2.575h3.92C66.549 3.18 63.926.837 60.014.837c-4.544 0-7.353 3.249-7.353 7.987 0 4.698 2.76 7.967 7.373 7.967zM75.936 16.79c3.706 0 6.203-1.86 6.788-4.727l-3.843-.262c-.42 1.177-1.492 1.791-2.877 1.791-2.077 0-3.394-1.418-3.394-3.722v-.01h10.202V8.683c0-5.25-3.082-7.846-7.042-7.846-4.408 0-7.266 3.229-7.266 7.997 0 4.899 2.819 7.957 7.432 7.957zM72.61 7.205c.088-1.76 1.385-3.168 3.228-3.168 1.805 0 3.053 1.328 3.063 3.168h-6.29zM91.33 16.489h4.154v-5.482h1.551l3.696 5.482h4.935l-5.354-7.786 5.296-7.665h-4.877l-4.076 5.995h-1.17V1.038H91.33V16.49zM111.116 1.038h-3.969V16.49h3.969v-6.066h5.12v6.066h3.941V1.039h-3.941v6.014h-5.12V1.038zM127.094 10.836V1.038h-3.969V16.49h4.126l5.373-9.828v9.828h3.96V1.039h-4.096l-5.394 9.797zM149.899 1.038H139.64V16.49h4.037V4.408h6.222v-3.37zM156.127 10.836V1.038h-3.969V16.49h4.125l5.374-9.828v9.828h3.96V1.039h-4.096l-5.394 9.797z" fill="#263238"/>
</svg>
