<svg width="166" height="73" viewBox="0 0 166 73" fill="none" xmlns="http://www.w3.org/2000/svg">
    <path d="M36.68 46.373c9.89-8.296 13.4-14.146 13.4-24.037C50.08 10.954 44.018 0 25.192 0 6.367 0 .304 10.955.304 24.463h13.827c0-7.446 2.233-10.636 11.061-10.636s11.062 2.978 11.062 8.508c0 7.02-4.893 10.85-14.997 18.826L.304 58.498v13.826h48.713V58.498H22.746l13.933-12.125zM61.768 36.588h40.63V22.76h-40.63v13.827zm0 21.271h40.63V44.033h-40.63v13.826zM146 29.78l17.868-15.953V0h-46.585v13.827h27.228l-15.635 14.89 4.786 10.636h7.233c7.445 0 11.274 2.34 11.274 9.572 0 6.914-2.978 9.573-12.125 9.573-9.041 0-12.125-2.66-12.125-9.573h-13.827c0 12.444 7.658 23.4 25.952 23.4s25.951-10.956 25.951-22.336c0-14.571-10.423-21.272-19.995-20.208z" fill="#263238"/>
</svg>
