<svg width="355" height="140" viewBox="0 0 355 140" fill="none" xmlns="http://www.w3.org/2000/svg">
    <rect width="355" height="140" rx="5" fill="#FFD8EF"/>
    <path d="M219.833 40.666h27v35h-27v-35z" fill="url(#paint0_linear)"/>
    <path opacity=".1" d="M329.888 115.508c0 .534-26.166 2.491-58.444 2.491-32.278 0-58.444-1.957-58.444-2.491s26.166-.966 58.444-.966c32.278 0 58.444.432 58.444.966z" fill="#324D8D"/>
    <path d="M222.645 83.996c0-.233.189-.423.423-.423h14.946c.234 0 .423.19.423.423v30.598a.423.423 0 01-.423.423h-14.946a.423.423 0 01-.423-.423V83.996z" fill="url(#paint1_linear)"/>
    <path d="M223.35 84.842c0-.234.189-.423.423-.423h13.395c.234 0 .423.19.423.423v11.985a.423.423 0 01-.423.423h-13.395a.423.423 0 01-.423-.423V84.842z" fill="url(#paint2_linear)"/>
    <path d="M223.491 99.366c0-.233.189-.423.423-.423h13.395c.234 0 .423.19.423.423v11.986a.423.423 0 01-.423.423h-13.395a.423.423 0 01-.423-.423V99.366z" fill="url(#paint3_linear)"/>
    <path d="M217.64 84.818a.14.14 0 01.112-.14l5.145-1.069c.088-.018.17.05.17.14l-.14 31.075c0 .07-.053.13-.123.139l-4.796.599a.14.14 0 01-.159-.139l-.209-30.605z" fill="url(#paint4_linear)"/>
    <path d="M228.572 89.578a.423.423 0 01.423-.413h1.869c.231 0 .419.185.423.416l.126 7.19a.423.423 0 01-.423.431h-2.168a.423.423 0 01-.422-.433l.172-7.191z" fill="#FFBBB6"/>
    <path d="M226.249 89.588c0-.234.189-.423.423-.423h2.052c.231 0 .419.185.423.416l.126 7.19a.424.424 0 01-.423.431h-2.178a.423.423 0 01-.423-.423v-7.19z" fill="url(#paint5_linear)"/>
    <path d="M223.499 89.589c0-.234.19-.423.423-.423h2.193c.231 0 .419.185.423.416l.126 7.19a.423.423 0 01-.423.431h-2.319a.423.423 0 01-.423-.423V89.59z" fill="url(#paint6_linear)"/>
    <path d="M312.323 79.273c5.393 14.056-.632 36.06-20.324 36.06-21.833 0-45.569 3.703-50.249-8.494-5.394-14.056 7.787-31.87 26.924-39.214 19.137-7.344 38.255-2.408 43.649 11.648z" fill="url(#paint7_linear)"/>
    <path opacity=".5" d="M239.751 108.833c15.056 2.972 44.417 5.833 58.333-4 15.064-10.644 14.334-30.334 5.667-40.917" stroke="#fff" stroke-width=".189" stroke-linecap="round" stroke-dasharray="0.38 0.95"/>
    <path d="M280.316 94.924c-1.41 2.482-5.711 2.82-7.685 2.68l8.602-20.094 19.67-5.71c.376.188.733 1.353-.846 4.512-1.974 3.948-10.435 6.839-12.691 7.755-2.256.917-5.287 7.755-7.05 10.858z" fill="#835FD2" fill-opacity=".5"/>
    <path d="M270.852 67.938l-.479 5.06v1.974h3.381a.16.16 0 00.159-.143l.674-6.602a.16.16 0 00-.147-.176l-3.416-.258a.16.16 0 00-.172.145z" fill="url(#paint8_linear)"/>
    <path d="M270.61 81.738l1.88-1.196 1.763 2.326-1.199 3.948c-2.021.423-6.486 1.284-8.178 1.34-2.115.07-2.961-1.34-2.609-3.384.337-1.95 6.839-9.518 6.768-9.8-.07-.282.142-2.89.283-3.384.141-.493 3.172-.776 3.736-.493.344.171-.614.777-1.432 1.243-.137.078-.064.3.092.285.563-.055 1.195-.087 1.34.022.203.153-.453 1.076-.911 1.653-.066.083-.02.19.083.165.343-.083.783-.346.828.016.053.426-1.255 4.27-2.65 7.072-.064.13.084.265.206.187z" fill="#FEA199"/>
    <path d="M270.318 87.356c-1.48.277-3.111.556-4.315.7 1.648-.713 5.825-3.537 8.069-5.428l.072.094-3.826 4.634z" fill="#E18379"/>
    <path d="M302.17 72.645c-.451 2.03-7.402 4.207-10.645 5.006l-1.199-5.288s-5.217.705-6.98.916c-1.762.212-3.807.438-4.089.212-.21-.168-.159-.542-.023-.848.054-.121-.029-.284-.159-.308-.312-.056-.664-.221-.664-.677 0-.669.917-.494.635-.846-.521-.65-.306-.776 0-1.199 2.984-.117 10.631-1.085 15.933-1.48 6.627-.494 7.755 1.974 7.191 4.512z" fill="#FEA199"/>
    <path d="M279.996 69.56c1.549-.108 3.767-.335 6.176-.585l-1.416 1.908c-.241.556-.369 1.309-.475 1.933l-.062.355-.873.109c-1.057.127-2.215.259-3.034.295.36-.65.772-1.444.496-1.353-.693.232-1.291-1.006-.812-2.662z" fill="#FC98A6"/>
    <path d="M290.338 72.422l-.013-.059s-3.238.438-5.474.727c1.865-.635 8.082-1.784 8.082-1.784l-2.595 1.117z" fill="#E18379"/>
    <path d="M299.296 74.99c-2.422 1.17-5.79 2.173-7.772 2.661l-.301-1.33c.303.282.671.555 1.288.555.499 0 2.312-.56 3.975-1.074 1.193-.37 2.31-.714 2.81-.812zM301.787 73.333c.2-.23.333-.46.384-.687.297-1.337.124-2.653-1.072-3.529a2.167 2.167 0 00.688 4.216z" fill="#FC98A6"/>
    <path d="M275.101 90.106c-1.58-1.297-4.888-1.104-6.345-.846-4.489-.14-13.833-.338-15.299 0-1.833.423-8.884 2.961-10.294 4.09-1.41 1.128-15.017 17.272-15.51 17.413-.494.141-3.142-.165-3.032 0 1.692 2.539 6.416 5.218 7.473 5.147.846-.056 1.199-1.128 1.199-1.621.493-.494 1.565-1.918 5.57-6.205 5.005-5.358 15.792-9.94 16.709-10.293.916-.352 12.055.423 16.779 0 1.854-.166 5.123-2.984 6.063-4.089-.235-.8-1.734-2.298-3.313-3.596z" fill="url(#paint9_linear)"/>
    <path d="M233.374 114.206l-5.5-3.629c-.116.114-.192.179-.221.187-.25.072-1.051.028-1.767-.01-.7-.038-1.319-.072-1.264.01 1.692 2.538 6.415 5.217 7.473 5.147.846-.056 1.198-1.128 1.198-1.622.026-.025.052-.053.081-.083z" fill="#FDFDFD"/>
    <path d="M262.341 97.812l-.8-.022c-3.053-.087-5.554-.158-5.968.001-.392.15-2.586 1.074-5.361 2.5l-7.605-6.401c.255-.265.445-.45.557-.54 1.41-1.128 8.461-3.667 10.294-4.09.116-.027.283-.05.493-.07l8.39 8.622z" fill="#C84D74" fill-opacity=".65"/>
    <path d="M272.348 80.048c-.057.339.916 2.21 1.339 2.75-1.316 1.528-4.582 4.893-4.864 6.416 7.402.564 8.862 4.86 9.447 4.653 1.199-.423 7.544-13.607 8.037-14.1.494-.494 4.935-1.481 5.147-1.904.211-.423-.846-5.147-.987-5.5-.141-.352-10.646 2.539-11.844 2.539-1.199 0-6.205 4.723-6.275 5.146z" fill="url(#paint10_linear)"/>
    <path d="M273.642 82.737l2.866-3.958-3.228 3.389c.134.23.26.43.362.569z" fill="#ADD1E7"/>
    <path d="M280.175 71.306c-.414-.828-.141-3.878.846-5.429.987-1.551 1.551-1.692 2.538-1.833 0 0 .868-.091 1.551.282.776.423 1.058 1.541 1.058 3.807 0 2.256-1.34 2.327-1.622 2.538-.225.17-.423 2.233-.493 3.243l-4.424 1.627a.14.14 0 01-.17-.204l1.801-3.062c.053-.09-.006-.21-.106-.235-.276-.07-.74-.257-.979-.734z" fill="#FFBBB6"/>
    <path d="M285.664 64.878c.361.613.504 1.644.504 3.255 0 1.247-.409 1.826-.822 2.13-.038-.09-.011-.277.019-.488.044-.313.097-.68-.043-.866-.124-.165-.401-.164-.64-.163-.216 0-.401 0-.418-.119a1.46 1.46 0 01.003-.424c.023-.183.041-.326-.144-.633-.211-.353-1.611-.87-2.82-.424l-.153.058c-.373.141-.55.209-.723.019.156-.502.354-.968.594-1.346.813-1.276 1.338-1.598 2.049-1.75l.066-.012c.351-.07 1.887 0 2.528.763z" fill="#E18379"/>
    <path d="M280.979 72.753l.282-.479a.153.153 0 00-.007-.16c.031-.022.05-.033.05-.033s.776-.07 1.622-.494c.373-.186.622-.345.858-.495.298-.19.572-.365 1.045-.562a.346.346 0 01.096-.03 7.37 7.37 0 01-.15.062c-.099.04-.179.072-.228.109-.041.031-.082.127-.121.269-.996.717-3.111 2.041-3.404 1.846a.455.455 0 01-.043-.033z" fill="#FD8F86"/>
    <path d="M281.066 70.846a.095.095 0 00-.134.004.094.094 0 00.005.134l.129-.138zm.519.236l-.019-.093.019.093zm.742-.36a.095.095 0 00-.019-.133.094.094 0 00-.132.02l.151.113zm-1.326.193l-.064.069.001.001.003.003.011.01a.847.847 0 00.175.11.752.752 0 00.476.066l-.037-.185a.564.564 0 01-.357-.051.704.704 0 01-.108-.064l-.028-.022a.066.066 0 01-.006-.005l-.001-.002-.065.07zm.602.26a1.23 1.23 0 00.531-.26c.061-.05.109-.097.141-.133.017-.017.029-.032.038-.042l.01-.013a.017.017 0 01.003-.003l.001-.002-.076-.057-.075-.057h-.001l-.001.002-.007.01-.031.034c-.027.03-.068.071-.122.115-.107.087-.26.182-.448.22l.037.185z" fill="#EB414E"/>
    <path d="M280.245 66.793c-.08-.16-.282-.846.635-1.762.916-.917 1.903-.987 2.256-1.058.352-.07 1.692-.14 2.467.635.812.811 1.058 2.679.776 3.877-.282 1.199-.917 1.692-.917 1.692-.359.077.071-.987-.141-1.269-.235-.313-1.021-.029-1.057-.282-.071-.493.155-.846-.141-1.34-.212-.352-1.34-1.127-2.548-.68-.624.23-1.048.752-1.33.187z" fill="url(#paint11_linear)"/>
    <path d="M244.052 83.585c3.325-.242 17.343 3.29 24.887 5.71l-15.406.76c-.122.007-.182.152-.096.238 4.027 4.045 11.98 11.902 11.98 12.29 0 .493-3.81 8.71-4.374 8.287-.441-.331-.153-3.122.211-4.5a.138.138 0 00-.053-.151c-6.579-4.644-19.06-13.336-20.745-15.302-2.115-2.467-.282-7.05 3.596-7.332z" fill="url(#paint12_linear)"/>
    <path d="M263.693 100.628c1.052 1.097 1.723 1.841 1.723 1.954 0 .493-3.81 8.71-4.374 8.287-.441-.331-.153-3.122.211-4.5.013-.049 0-.1-.034-.135l2.474-5.606z" fill="#FDFDFD"/>
    <path d="M317.118 93.765c.315 3.076 2.42 11.445 4.159 15.228h4.795c.188-.07 1.24-1.41 3.948-6.204 3.384-5.992 1.417-8.105-.282-7.12-1.34.775-4.089 7.684-4.301 7.614-.352-.118.071-17.062-.352-19.811-.423-2.75-2.552-3.736-3.385-2.256-1.269 2.256-.681 10.763-.423 15.933-.493-1.668-1.706-5.26-2.608-6.275-1.128-1.269-1.833.142-1.551 2.891z" fill="url(#paint13_linear)"/>
    <path d="M322.658 80.535l.303 13.604-2.02-4.423.011.426 2.019 4.419.32 14.376-3.191-9.784v-5.45a31.5 31.5 0 00-.167-.418v5.357l-2.56-7.849a1.692 1.692 0 00-.102.227l2.58 7.907-2.13-1.702.057.259 2.167 1.732 1.987 6.093-2.529-1.565.072.241 2.538 1.57 1.121 3.438h.325l-.178-7.972 1.999-3.42v-.331l-2.006 3.433-.137-6.151 2.119-7.543c-.004-.197-.007-.39-.012-.576l-2.119 7.548-.3-13.45c-.056-.003-.112-.002-.167.004zM328.894 96.613l-.343 3.694-4.97 8.686h.192l3.534-6.176 3.366-1.273.104-.218-3.34 1.264 3.903-6.82a1.247 1.247 0 00-.128-.111l-2.461 4.3.336-3.622a8.97 8.97 0 00-.193.276z" fill="#98F2E8"/>
    <path d="M329.387 107.667h-9.925a.138.138 0 00-.14.153c.113 1.048.783 7.144 1.041 7.25.282.116 7.967.117 8.249 0 .276-.115.89-5.009.915-7.264a.138.138 0 00-.14-.139z" fill="url(#paint14_linear)"/>
    <g filter="url(#filter0_d)">
        <path d="M234.347 52.81c0-.921.746-1.667 1.667-1.667h19.509c.92 0 1.667.746 1.667 1.666v18.382c0 .92-.747 1.666-1.667 1.666h-19.509a1.667 1.667 0 01-1.667-1.666V52.809z" fill="url(#paint15_linear)"/>
    </g>
    <path d="M242.133 57.36a.988.988 0 01.979-.86h5.45c.499 0 .919.372.98.867l1.098 8.954a.987.987 0 01-.98 1.107h-7.703a.987.987 0 01-.979-1.114l1.155-8.953z" fill="#fff" fill-opacity=".62"/>
    <path d="M250.285 63.437l.354 2.885a.987.987 0 01-.98 1.107h-2.953a3 3 0 013.579-3.992z" fill="#FFFDFD" fill-opacity=".81"/>
    <path d="M244.537 58.672a.4.4 0 10-.8.03l.8-.03zm1.574 1.777l-.024-.4.024.4zm2.019-1.712a.4.4 0 00-.794-.1l.794.1zm-3.993-.05l-.4.015v.004l.001.008.001.022.007.075a2.767 2.767 0 00.315.997c.155.276.388.558.737.761.352.205.793.313 1.338.28l-.049-.8c-.408.026-.688-.057-.886-.172a1.203 1.203 0 01-.441-.461 1.85 1.85 0 01-.218-.693l-.004-.044-.001-.009v.001l-.4.016zm1.999 2.162c.894-.056 1.401-.625 1.668-1.125a3.156 3.156 0 00.311-.892l.011-.066a.285.285 0 01.004-.026v-.002-.001l-.397-.05-.397-.05v-.001-.001l-.002.01a2.214 2.214 0 01-.043.203c-.037.137-.098.319-.194.499-.191.358-.494.67-1.01.702l.049.8z" fill="#FFA273" fill-opacity=".59"/>
    <g filter="url(#filter1_d)">
        <path d="M262.126 41.05c0-1.045.848-1.893 1.893-1.893h15.813c1.046 0 1.893.848 1.893 1.894v14.825a1.893 1.893 0 01-1.893 1.894h-15.813a1.893 1.893 0 01-1.893-1.894V41.052z" fill="url(#paint16_linear)"/>
    </g>
    <path opacity=".6" d="M266.498 46.002a.423.423 0 01.396-.57h8.268a.14.14 0 01.141.147l-.244 5.244a.704.704 0 01-.704.672h-5.323a.705.705 0 01-.661-.46l-1.873-5.033z" fill="#fff"/>
    <path d="M270.869 51.988a.846.846 0 11-1.692 0 .846.846 0 011.692 0zM274.253 51.988a.846.846 0 11-1.692 0 .846.846 0 011.692 0z" fill="#fff"/>
    <path d="M277.073 43.669h-2.186l-.273 7.436h-5.801" stroke="#fff" stroke-width=".801" stroke-linecap="round" stroke-linejoin="round"/>
    <g filter="url(#filter2_d)">
        <path d="M255.358 39.158a7.897 7.897 0 11-15.794-.001 7.897 7.897 0 0115.794.001z" fill="url(#paint17_linear)"/>
    </g>
    <path d="M246.263 40.287l.74-.67.302-.282" stroke="#FDFDFD" stroke-width=".481"/>
    <path d="M251.409 37.538a2.468 2.468 0 11-4.936 0 2.468 2.468 0 014.936 0z" fill="#fff" fill-opacity=".63"/>
    <path d="M246.73 40.32l-.672-.572a.422.422 0 00-.624.086l-1.701 2.523a.424.424 0 00.091.57l.05.04a.423.423 0 00.535-.013l2.323-1.991a.423.423 0 00-.002-.644z" fill="#fff"/>
    <path d="M303.581 22.166v27.496" stroke="url(#paint18_linear)" stroke-width=".481"/>
    <path d="M304.992 53.187a1.34 1.34 0 11-2.68 0 1.34 1.34 0 012.68 0z" fill="#8FC0C7"/>
    <path d="M299.969 52.482l3.278-3.067a.423.423 0 01.549-.025l3.596 2.803a.423.423 0 01-.244.756l-6.874.265a.423.423 0 01-.305-.732z" fill="#B7E4EB"/>
    <circle cx="234.516" cy="79.691" r=".759" fill="url(#paint19_linear)"/>
    <circle cx="316.916" cy="72.083" r="1.417" fill="url(#paint20_linear)"/>
    <circle cx="258.993" cy="35.252" r=".963" fill="url(#paint21_linear)"/>
    <circle cx="297.808" cy="90.45" r=".963" fill="#FFBBB6"/>
    <g filter="url(#filter3_d)">
        <circle cx="319.166" cy="49.999" r=".833" fill="url(#paint22_linear)"/>
    </g>
    <path d="M47.5 103.5c20-20 33 6.5 52.5-12.5" stroke="#79ECC1" stroke-width="20"/>
    <path d="M21 46.2c0 3.4 1.68 6.8 6.04 6.8 3.72 0 5.62-2.38 5.74-5.18h-2c-.34 2.16-1.02 3.18-3.74 3.18-2.88 0-4.04-1.38-4.04-4.8s1.16-4.8 4.04-4.8c2.72 0 3.4 1.02 3.74 3.18h2c-.12-2.8-2.02-5.18-5.74-5.18-4.36 0-6.04 3.4-6.04 6.8zM43.77 43h-2.42l-2.74 4.02h-1.62V43h-2v10h2v-3.98h1.62L41.35 53h2.42l-3.42-4.98L43.77 43zm8.8 0l-4.48 6.16h-.32V43h-2v10h2l4.48-6.16h.32V53h2V43h-2zm13.63 8v-8h-7.24v.06c0 4.5 0 5.8-1.74 7.94h-1.06v5.2h2V53h8.04v3.2h2V51h-2zm-6.78 0c1.3-1.78 1.52-3 1.54-6h3.24v6h-4.78zm19.564-8h-2.42l-2.74 4.02h-1.62V43h-2v10h2v-3.98h1.62l2.74 3.98h2.42l-3.42-4.98 3.42-5.02zm9.36 8v-8h-7.2v2h5.2v2.2c-.6-.6-1.38-1-2.78-1-2.44 0-3.58 1.56-3.58 3.4 0 1.84 1.14 3.4 3.58 3.4 1.4 0 2.18-.4 2.78-1v1h3.2v-2h-1.2zm-4.18 0c-1.46 0-2.18-.3-2.18-1.4 0-1.1.72-1.4 2.18-1.4 1.46 0 2.18.3 2.18 1.4 0 1.1-.72 1.4-2.18 1.4zM30.6 68h-9.4v10h2v-8h5.4v8h2V68zm7.382 0c-1.4 0-2.38.54-2.98 1.2V68h-2v13.2h2v-4.4c.6.66 1.58 1.2 2.98 1.2 3.24 0 4.38-2.06 4.38-5s-1.14-5-4.38-5zm-.3 8c-1.96 0-2.68-.6-2.68-3s.72-3 2.68-3c1.96 0 2.68.6 2.68 3s-.72 3-2.68 3zm13.287-8l-4.48 6.16h-.32V68h-2v10h2l4.48-6.16h.32V78h2V68h-2zm16.368 0c-1.4 0-2.38.54-2.98 1.2V68h-2v13.2h2v-4.4c.6.66 1.58 1.2 2.98 1.2 3.24 0 4.38-2.06 4.38-5s-1.14-5-4.38-5zm-.3 8c-1.96 0-2.68-.6-2.68-3s.72-3 2.68-3c1.96 0 2.68.6 2.68 3s-.72 3-2.68 3zm14.927-3.2c0-2.94-1.24-4.8-4.32-4.8s-4.32 2.06-4.32 5c0 1.78.56 5 5.08 5 .76 0 1.32 0 2.88-.4v-1.96c-1.3.36-2.08.36-2.88.36-2.18 0-2.82-.86-3-2h6.56v-1.2zm-4.32-2.8c1.58 0 2.24.54 2.32 2h-4.62c.12-1.34.8-2 2.3-2zm13.17-2h-6.84v10h2v-8h4.84v-2zm9.002 0l-4.48 6.16h-.32V68h-2v10h2l4.48-6.16h.32V78h2V68h-2zm3.801 5c0 2.94 1.54 5 4.48 5 2.62 0 4.16-1.62 4.16-3.8h-2c-.08 1.04-.5 1.8-2.06 1.8-1.86 0-2.58-.6-2.58-3s.72-3 2.58-3c1.56 0 1.98.76 2.06 1.8h2c0-2.18-1.54-3.8-4.16-3.8-2.94 0-4.48 2.06-4.48 5zm18.809-5h-9.16v2h3.58v8h2v-8h3.58v-2zm6.981 0c-1.4 0-2.38.54-2.98 1.2V68h-2v13.2h2v-4.4c.6.66 1.58 1.2 2.98 1.2 3.24 0 4.38-2.06 4.38-5s-1.14-5-4.38-5zm-.3 8c-1.96 0-2.68-.6-2.68-3s.72-3 2.68-3c1.96 0 2.68.6 2.68 3s-.72 3-2.68 3zm14.648 0v-8h-7.2v2h5.2v2.2c-.6-.6-1.38-1-2.78-1-2.44 0-3.58 1.56-3.58 3.4 0 1.84 1.14 3.4 3.58 3.4 1.4 0 2.18-.4 2.78-1v1h3.2v-2h-1.2zm-4.18 0c-1.46 0-2.18-.3-2.18-1.4 0-1.1.72-1.4 2.18-1.4 1.46 0 2.18.3 2.18 1.4 0 1.1-.72 1.4-2.18 1.4zm19.187 0h-2.4v-8h-2v8h-5.4v-8h-2v10h9.8v3.2h2V76zm8.398-8l-4.48 6.16h-.32V68h-2v10h2l4.48-6.16h.32V78h2V68h-2zm11.192 0l-4.48 6.16h-.32V68h-2v10h2l4.48-6.16h.32V78h2V68h-2zM31.24 101v-8H24v.06c0 4.5 0 5.8-1.74 7.94H21.2v5.2h2V103h8.04v3.2h2V101h-2zm-6.78 0c1.3-1.78 1.52-3 1.54-6h3.24v6h-4.78zm15.168 2c3.04 0 4.78-2.06 4.78-5s-1.74-5-4.78-5-4.78 2.06-4.78 5 1.74 5 4.78 5zm0-2c-2.06 0-2.78-.6-2.78-3s.72-3 2.78-3c2.06 0 2.78.6 2.78 3s-.72 3-2.78 3zm18.419-11.6h-4.64v2h2.64V103h2V89.4zm7.51 4.4c-.86 0-1.68.18-2.44.62l.42-3.02h5.24v-2h-7l-1 7.52h2c.32-.82.88-1.12 2.28-1.12 1.96 0 2.68.6 2.68 2.6s-.72 2.6-2.68 2.6c-1.44 0-2.2-.54-2.52-1.52h-2.08c.34 2.18 1.8 3.52 4.6 3.52 3.54 0 4.68-2.06 4.68-4.6 0-2.54-1.14-4.6-4.18-4.6zm10.76 4c2.64 0 4.18-1.66 4.18-4.2s-1.54-4.2-4.18-4.2c-2.64 0-4.18 1.66-4.18 4.2s1.54 4.2 4.18 4.2zm9.72-8.4h-2.12l-4.9 13.6h2.12l4.9-13.6zm-9.72 6.4c-1.46 0-2.18-.6-2.18-2.2s.72-2.2 2.18-2.2c1.46 0 2.18.6 2.18 2.2s-.72 2.2-2.18 2.2zm12.42 7.2c2.64 0 4.18-1.66 4.18-4.2s-1.54-4.2-4.18-4.2c-2.64 0-4.18 1.66-4.18 4.2s1.54 4.2 4.18 4.2zm0-2c-1.46 0-2.18-.6-2.18-2.2s.72-2.2 2.18-2.2c1.46 0 2.18.6 2.18 2.2s-.72 2.2-2.18 2.2z" fill="#1C294D" fill-opacity=".8"/>
    <defs>
        <linearGradient id="paint0_linear" x1="233.471" y1="70.99" x2="240.627" y2="47.268" gradientUnits="userSpaceOnUse">
            <stop stop-color="#FFD9F0"/>
            <stop offset="1" stop-color="#EFF6FF"/>
        </linearGradient>
        <linearGradient id="paint1_linear" x1="227.223" y1="93.166" x2="237.389" y2="107.666" gradientUnits="userSpaceOnUse">
            <stop stop-color="#A7D9E0"/>
            <stop offset="1" stop-color="#E3DBFB"/>
        </linearGradient>
        <linearGradient id="paint2_linear" x1="244.722" y1="92.665" x2="240.639" y2="101.416" gradientUnits="userSpaceOnUse">
            <stop stop-color="#76B0B8"/>
            <stop offset="1" stop-color="#C9C2E1"/>
        </linearGradient>
        <linearGradient id="paint3_linear" x1="234.306" y1="101.583" x2="229.139" y2="110.167" gradientUnits="userSpaceOnUse">
            <stop stop-color="#76B0B8"/>
            <stop offset="1" stop-color="#C9C2E2"/>
        </linearGradient>
        <linearGradient id="paint4_linear" x1="220.353" y1="83.574" x2="220.353" y2="115.582" gradientUnits="userSpaceOnUse">
            <stop stop-color="#A7D9E0"/>
            <stop offset="1" stop-color="#E5DBFC"/>
        </linearGradient>
        <linearGradient id="paint5_linear" x1="227.694" y1="89.165" x2="227.694" y2="97.202" gradientUnits="userSpaceOnUse">
            <stop stop-color="#68D7FA"/>
            <stop offset="1" stop-color="#77E9C9"/>
        </linearGradient>
        <linearGradient id="paint6_linear" x1="225.085" y1="89.166" x2="225.085" y2="97.203" gradientUnits="userSpaceOnUse">
            <stop stop-color="#A58AFF"/>
            <stop offset="1" stop-color="#5EB2FF"/>
        </linearGradient>
        <linearGradient id="paint7_linear" x1="284.721" y1="112" x2="276.805" y2="73.083" gradientUnits="userSpaceOnUse">
            <stop stop-color="#B483FF"/>
            <stop offset="1" stop-color="#68ADFF"/>
        </linearGradient>
        <linearGradient id="paint8_linear" x1="270.305" y1="67.833" x2="275.805" y2="69.166" gradientUnits="userSpaceOnUse">
            <stop stop-color="#FF956F"/>
            <stop offset="1" stop-color="#FFC380"/>
        </linearGradient>
        <linearGradient id="paint9_linear" x1="255.138" y1="90.249" x2="257.138" y2="106.166" gradientUnits="userSpaceOnUse">
            <stop stop-color="#CE5379"/>
            <stop offset="1" stop-color="#F49274"/>
        </linearGradient>
        <linearGradient id="paint10_linear" x1="281.805" y1="81.166" x2="282.305" y2="95.666" gradientUnits="userSpaceOnUse">
            <stop stop-color="#F3F6F8"/>
            <stop offset="1" stop-color="#AAD7F5"/>
        </linearGradient>
        <linearGradient id="paint11_linear" x1="283.33" y1="63.933" x2="283.472" y2="66.749" gradientUnits="userSpaceOnUse">
            <stop stop-color="#954040"/>
            <stop offset="1" stop-color="#612828"/>
        </linearGradient>
        <linearGradient id="paint12_linear" x1="239.639" y1="82.332" x2="259.389" y2="106.749" gradientUnits="userSpaceOnUse">
            <stop stop-color="#C94B79"/>
            <stop offset="1" stop-color="#F59474"/>
        </linearGradient>
        <linearGradient id="paint13_linear" x1="327.556" y1="88.583" x2="322.306" y2="112.416" gradientUnits="userSpaceOnUse">
            <stop stop-color="#68D7FA"/>
            <stop offset="1" stop-color="#7AEDBE"/>
        </linearGradient>
        <linearGradient id="paint14_linear" x1="324.417" y1="107.667" x2="324.468" y2="116.365" gradientUnits="userSpaceOnUse">
            <stop stop-color="#FF8C6B"/>
            <stop offset="1" stop-color="#FFCB82"/>
        </linearGradient>
        <linearGradient id="paint15_linear" x1="245.768" y1="51.143" x2="245.768" y2="72.857" gradientUnits="userSpaceOnUse">
            <stop stop-color="#FF906D"/>
            <stop offset="1" stop-color="#FFCB82"/>
        </linearGradient>
        <linearGradient id="paint16_linear" x1="271.926" y1="39.157" x2="267.139" y2="57.833" gradientUnits="userSpaceOnUse">
            <stop stop-color="#7AEDC0"/>
            <stop offset="1" stop-color="#68D7F9"/>
        </linearGradient>
        <linearGradient id="paint17_linear" x1="247.461" y1="31.262" x2="247.461" y2="47.054" gradientUnits="userSpaceOnUse">
            <stop stop-color="#B681FF"/>
            <stop offset="1" stop-color="#64AFFF"/>
        </linearGradient>
        <linearGradient id="paint18_linear" x1="297.429" y1="46.499" x2="297.443" y2="25.832" gradientUnits="userSpaceOnUse">
            <stop stop-color="#A7D9E0"/>
            <stop offset="1" stop-color="#A7D9E0" stop-opacity="0"/>
        </linearGradient>
        <linearGradient id="paint19_linear" x1="234.516" y1="78.933" x2="234.516" y2="80.45" gradientUnits="userSpaceOnUse">
            <stop stop-color="#FFB798"/>
            <stop offset="1" stop-color="#FFDF6F"/>
        </linearGradient>
        <linearGradient id="paint20_linear" x1="316.916" y1="70.666" x2="316.916" y2="73.499" gradientUnits="userSpaceOnUse">
            <stop stop-color="#FFB798"/>
            <stop offset="1" stop-color="#FFDF6F"/>
        </linearGradient>
        <linearGradient id="paint21_linear" x1="258.993" y1="34.289" x2="258.993" y2="36.215" gradientUnits="userSpaceOnUse">
            <stop stop-color="#FFB798"/>
            <stop offset="1" stop-color="#FF6F9A"/>
        </linearGradient>
        <linearGradient id="paint22_linear" x1="319.166" y1="49.166" x2="318.619" y2="50.833" gradientUnits="userSpaceOnUse">
            <stop stop-color="#68D7FA"/>
            <stop offset="1" stop-color="#7EF1B3"/>
        </linearGradient>
        <filter id="filter0_d" x="225.827" y="43.569" width="39.883" height="38.755" filterUnits="userSpaceOnUse" color-interpolation-filters="sRGB">
            <feFlood flood-opacity="0" result="BackgroundImageFix"/>
            <feColorMatrix in="SourceAlpha" values="0 0 0 0 0 0 0 0 0 0 0 0 0 0 0 0 0 0 127 0"/>
            <feOffset dy=".947"/>
            <feGaussianBlur stdDeviation="4.26"/>
            <feColorMatrix values="0 0 0 0 0 0 0 0 0 0 0 0 0 0 0 0 0 0 0.1 0"/>
            <feBlend in2="BackgroundImageFix" result="effect1_dropShadow"/>
            <feBlend in="SourceGraphic" in2="effect1_dropShadow" result="shape"/>
        </filter>
        <filter id="filter1_d" x="253.606" y="31.584" width="36.64" height="35.653" filterUnits="userSpaceOnUse" color-interpolation-filters="sRGB">
            <feFlood flood-opacity="0" result="BackgroundImageFix"/>
            <feColorMatrix in="SourceAlpha" values="0 0 0 0 0 0 0 0 0 0 0 0 0 0 0 0 0 0 127 0"/>
            <feOffset dy=".947"/>
            <feGaussianBlur stdDeviation="4.26"/>
            <feColorMatrix values="0 0 0 0 0 0 0 0 0 0 0 0 0 0 0 0 0 0 0.1 0"/>
            <feBlend in2="BackgroundImageFix" result="effect1_dropShadow"/>
            <feBlend in="SourceGraphic" in2="effect1_dropShadow" result="shape"/>
        </filter>
        <filter id="filter2_d" x="231.045" y="23.688" width="32.833" height="32.833" filterUnits="userSpaceOnUse" color-interpolation-filters="sRGB">
            <feFlood flood-opacity="0" result="BackgroundImageFix"/>
            <feColorMatrix in="SourceAlpha" values="0 0 0 0 0 0 0 0 0 0 0 0 0 0 0 0 0 0 127 0"/>
            <feOffset dy=".947"/>
            <feGaussianBlur stdDeviation="4.26"/>
            <feColorMatrix values="0 0 0 0 0 0 0 0 0 0 0 0 0 0 0 0 0 0 0.1 0"/>
            <feBlend in2="BackgroundImageFix" result="effect1_dropShadow"/>
            <feBlend in="SourceGraphic" in2="effect1_dropShadow" result="shape"/>
        </filter>
        <filter id="filter3_d" x="311.714" y="43.136" width="14.904" height="14.904" filterUnits="userSpaceOnUse" color-interpolation-filters="sRGB">
            <feFlood flood-opacity="0" result="BackgroundImageFix"/>
            <feColorMatrix in="SourceAlpha" values="0 0 0 0 0 0 0 0 0 0 0 0 0 0 0 0 0 0 127 0"/>
            <feOffset dy=".588"/>
            <feGaussianBlur stdDeviation="3.309"/>
            <feColorMatrix values="0 0 0 0 0.396078 0 0 0 0 0.658824 0 0 0 0 0.988235 0 0 0 0.15 0"/>
            <feBlend in2="BackgroundImageFix" result="effect1_dropShadow"/>
            <feBlend in="SourceGraphic" in2="effect1_dropShadow" result="shape"/>
        </filter>
    </defs>
</svg>
