<svg width="360" height="140" viewBox="0 0 360 140" fill="none" xmlns="http://www.w3.org/2000/svg">
    <rect width="360" height="140" rx="5" fill="#6D378F"/>
    <path fill-rule="evenodd" clip-rule="evenodd" d="M334.778 78.293V78.746c0 .075-.003.149-.005.223 0 .04 0 .08-.003.119-.004.04 0 .074-.004.111 0 .064-.004.127-.007.19v.047l-.013.277-.004.072-.011.187a32.31 32.31 0 01-.125 1.484l-.052.448-.029.224a38.994 38.994 0 01-.197 1.319l-.038.217a38.919 38.919 0 01-.299 1.484l-.143.62a37.983 37.983 0 01-1.132 3.826 44.39 44.39 0 01-.754 1.994l-.127.307-.063.151a66.598 66.598 0 01-.434 1l-.122.267c-.16.35-.316.679-.465.983-.075.151-.147.297-.218.437-.053.104-.104.206-.155.303-.032.064-.064.127-.098.19l-.048.092-.093.176c-.047.085-.089.166-.131.243l-.082.15c-.04.072-.078.143-.114.204-.048.086-.092.164-.134.235l-.085.148-.048.083-.022.038-.04.067a4.285 4.285 0 01-.096.153c-4.921 7.421-12.645 14.086-21.873 18.343-.944.436-1.903.845-2.877 1.229-4.064 1.599-8.376 2.728-12.839 3.259a48.582 48.582 0 01-5.296.352 47.414 47.414 0 01-14.798-2.21c-7.032-2.223-14.069-6.218-20.767-12.42l-.226-.211c-.106-.099-.212-.2-.316-.3l-.057-.055-.294-.285-.004-.004-.105-.104c-.048-.044-.089-.088-.134-.132l-.111-.111-.173-.174-.104-.106-.243-.248-.251-.264-.065-.068-.09-.095-.179-.19c-.025-.027-.047-.053-.074-.08l-.16-.174-.01-.011a30.477 30.477 0 01-.191-.208l-.069-.077c-.07-.079-.143-.157-.21-.238l-.053-.059-.068-.078-.198-.228a14.518 14.518 0 01-.275-.324l-.034-.04-.022-.025-.055-.066-.114-.135-.025-.032-.052-.062-.207-.251-.169-.209-.148-.184-.084-.107-.078-.099-.005-.006c-.058-.073-.115-.143-.17-.218l-.099-.127-.206-.27-.052-.07-.128-.17-.042-.056-.016-.02-.228-.312-.003-.004-.021-.028c-.07-.095-.14-.193-.208-.29l-.048-.07a23.052 23.052 0 01-.175-.248l-.048-.07-.048-.069-.122-.176-.025-.037c-.065-.095-.131-.19-.196-.289l-.108-.16-.087-.132a.54.54 0 01-.02-.03l-.023-.035-.085-.13-.05-.078-.051-.076-.026-.042-.185-.29a44.787 44.787 0 01-.206-.327l-.022-.035-.112-.183-.093-.15a50.393 50.393 0 01-.369-.62l-.004-.007-.184-.317c0-.003-.003-.005-.004-.007a10.227 10.227 0 01-.14-.246l-.048-.088a36.606 36.606 0 00-.175-.312l-.076-.143-.13-.238-.034-.063-.089-.169-.042-.08-.005-.008-.087-.166a9.178 9.178 0 01-.086-.169c0-.006-.006-.011-.009-.017l-.031-.059-.047-.095a12.906 12.906 0 01-.086-.17l-.028-.055-.143-.285-.166-.342a50.21 50.21 0 01-.158-.334l-.032-.068-.053-.113-.043-.096a19.03 19.03 0 01-.036-.078l-.147-.322-.021-.047-.078-.177-.064-.143a27.37 27.37 0 01-.118-.273l-.034-.079-.056-.13-.088-.21v-.003a16.153 16.153 0 01-.086-.207l-.052-.127-.033-.084a18.885 18.885 0 01-.178-.446l-.073-.187-.064-.167a17.73 17.73 0 01-.133-.353c-.023-.063-.048-.125-.069-.186l-.127-.352a.005.005 0 000-.005l-.122-.35-.028-.077-.095-.277-.032-.096-.018-.052-.035-.104-.033-.103c-.026-.075-.048-.15-.073-.225l-.043-.132v-.006l-.024-.076v-.004c-.025-.08-.048-.16-.074-.238-.005-.011-.008-.023-.011-.034l-.051-.166-.054-.176a.21.21 0 00-.007-.025l-.062-.208-.065-.224-.08-.28a4.753 4.753 0 00-.012-.042l-.027-.098-.013-.044c-.016-.06-.033-.117-.047-.176l-.054-.2a10.278 10.278 0 01-.047-.177l-.021-.078c-.024-.09-.048-.18-.07-.27l-.074-.297c-.025-.1-.049-.195-.07-.286 0-.007-.004-.014-.006-.021a25.636 25.636 0 00-.052-.217l-.008-.036-.056-.244c-.016-.069-.031-.139-.048-.208a5.57 5.57 0 01-.047-.224l-.055-.255-.022-.104c-.032-.15-.063-.3-.092-.451l-.015-.075-.01-.051-.064-.329-.031-.165c-.02-.102-.038-.204-.056-.306-.048-.272-.096-.543-.138-.816l-.009-.05-.01-.062a60.5 60.5 0 01-.091-.606l-.062-.435c-.04-.29-.076-.581-.109-.873-.034-.29-.065-.582-.096-.873a45.505 45.505 0 01-.173-2.356l-.013-.274a50.531 50.531 0 01.111-6.247 49.304 49.304 0 01.199-2.02l.047-.403.029-.226c.033-.255.068-.51.105-.764l.076-.51a49.282 49.282 0 01.455-2.534l.051-.252a54.87 54.87 0 011.168-4.595c.053-.177.108-.354.163-.532a55.442 55.442 0 014.836-11.084 52.193 52.193 0 01.959-1.604c7.325-11.774 19.058-20.402 33.285-21.374 21.147-1.444 26.579 5.905 31.211 15.172l.159.32c.211.426.421.855.63 1.286 1.156 2.38 2.314 4.864 3.715 7.333a48.982 48.982 0 001.394 2.31l.131.204c.143.222.292.443.442.667l.227.33c.109.157.219.313.33.47.052.072.104.142.157.218A37.186 37.186 0 00318.568 53c.048.054.091.107.137.161.092.108.184.215.277.32l.283.32a38.097 38.097 0 001.193 1.262 36.067 36.067 0 00.635.622 34.383 34.383 0 003.397 2.841 27.25 27.25 0 011.077.826l.173.14.171.14c.056.047.113.094.168.142.232.194.457.39.677.585l.138.125.157.142.155.143.154.143.151.143.15.143.148.143.145.146c.051.05.096.095.143.146.048.051.096.095.143.147.095.095.188.196.28.294.047.048.092.099.136.148l.136.149c.185.205.366.411.542.619l.152.182c.094.112.186.225.277.34l.101.127.027.034.143.183.012.016.014.018.01.013.13.17.04.055a.043.043 0 01.007.008l.039.054.077.103.051.07.048.064a8.493 8.493 0 01.147.207l.082.117c.005.01.011.017.016.024l.123.179.073.107.056.084.044.066.079.12.032.047.016.025c.024.038.048.077.074.115l.007.01.056.09c.033.05.064.1.095.151l.044.071.051.082.072.119.013.022.1.169.033.055.105.181v.004l.021.037.005.01.105.186.017.031.114.206.047.089.048.088.021.04.011.021c.035.067.071.134.104.201l.028.052.079.158.024.048c.028.055.056.112.082.168l.029.058.01.021c0 .003.003.006.004.009l.005.01.075.158.014.029.034.074.026.056.026.057.042.092a.028.028 0 00.004.008l.043.096.027.062.023.052.017.038.063.146.031.073.006.015.092.22.015.036.045.113.041.102.016.04c.015.04.031.08.048.119l.028.074.004.01.006.016c.009.024.019.047.028.075l.023.061c.017.044.033.088.048.133.006.019.014.037.021.056l.029.083.021.058.01.03.071.201c.001.004.003.007.003.011l.028.08.031.093.022.065.012.038.01.029v.004l.039.122v.008a.988.988 0 01.009.028l.005.016.016.052c.021.063.041.127.06.19l.012.039.055.184.02.069.055.19.014.048.053.19.064.243.054.214v.005l.038.155v.004l.014.065.01.039.012.052.044.19.027.125v.005l.022.102.003.017.021.101.021.1.007.035.031.157.016.083c.01.047.018.095.027.142l.013.068.027.152.015.084c0 .013.004.026.006.039a.23.23 0 01.005.034c.006.028.01.057.015.085l.02.122.007.047.024.16c.005.03.01.06.013.09l.021.14c0 .016.005.032.007.047l.03.228.029.228.007.063.026.229.021.203v.015l.003.03v.02c.013.122.023.244.033.366l.012.146c0 .028.004.056.006.083l.007.088.01.152v.005c0 .022.003.044.004.065l.005.093.007.123v.034l.011.227.004.113v.06c0 .02 0 .043.003.065v.007c0 .055.004.11.005.166l.004.148.003.153V78.037c.009.09.01.173.009.255z" fill="#F6F2FF"/>
    <path fill-rule="evenodd" clip-rule="evenodd" d="M334.778 78.293V78.746c0 .075-.003.149-.005.223 0 .04 0 .08-.003.119-.004.04 0 .074-.004.111 0 .063-.004.127-.007.19v.047l-.013.277-.004.071-.011.188-.011.172a26.066 26.066 0 01-.114 1.312l-.052.448-.029.224a39.05 39.05 0 01-.197 1.319l-.038.217a32.23 32.23 0 01-.208 1.065c-.03.143-.06.28-.091.419l-.143.619a37.983 37.983 0 01-1.132 3.826 44.441 44.441 0 01-.754 1.995l-.127.306-.063.152a65.708 65.708 0 01-.434 1l-.122.267c-.16.35-.316.678-.465.983-.075.151-.147.297-.218.436-.053.105-.104.207-.155.304a8.596 8.596 0 01-.098.19l-.048.092-.093.175-.131.244-.082.15c-.04.072-.078.143-.114.204-.048.086-.092.164-.134.235-.03.054-.059.103-.085.147l-.048.084-.022.038-.04.067a4.285 4.285 0 01-.096.153c-4.921 7.421-12.645 14.086-21.873 18.343-.944.435-1.903.845-2.877 1.229-4.064 1.599-8.376 2.728-12.839 3.259a48.582 48.582 0 01-5.296.352 47.414 47.414 0 01-14.798-2.21c-7.032-2.223-14.069-6.218-20.767-12.421l-.226-.211a30.027 30.027 0 01-.316-.299l-.057-.055a26.56 26.56 0 01-.294-.286l-.004-.003-.105-.104c-.048-.044-.089-.088-.134-.132l-.111-.111-.173-.174-.104-.106-.243-.249-.251-.263-.065-.068-.09-.095-.179-.191c-.025-.026-.047-.053-.074-.079l-.16-.174-.01-.011-.191-.211-.068-.077c-.071-.078-.143-.157-.211-.238l-.052-.059-.068-.077-.199-.229a19.74 19.74 0 01-.275-.323l-.055-.065-.055-.066a4.826 4.826 0 01-.114-.136l-.026-.031-.051-.062-.208-.251-.169-.209-.148-.185-.084-.107-.078-.098-.005-.007c-.057-.072-.114-.143-.17-.218a7.378 7.378 0 01-.098-.127l-.207-.27-.052-.07-.128-.17-.042-.056-.015-.02a61.746 61.746 0 01-.229-.311l-.023-.032c-.071-.095-.14-.193-.209-.29l-.047-.07-.176-.25-.048-.068-.047-.07-.123-.176-.002-.005-.022-.031c-.066-.096-.132-.191-.197-.29l-.107-.16-.088-.132-.019-.03-.023-.035-.086-.13-.05-.077-.037-.058a.326.326 0 01-.013-.019l-.027-.042c-.062-.095-.124-.193-.185-.29-.069-.108-.137-.218-.205-.327l-.022-.035-.113-.182-.092-.151a67.321 67.321 0 01-.37-.62l-.004-.006-.184-.318c0-.003-.003-.005-.003-.007-.048-.082-.096-.164-.14-.246l-.048-.088a21.618 21.618 0 01-.128-.23c-.016-.027-.031-.055-.048-.082l-.076-.143a13.534 13.534 0 01-.129-.238l-.034-.063a8.967 8.967 0 01-.089-.169l-.043-.08-.004-.007c-.03-.055-.058-.111-.087-.167a32.706 32.706 0 01-.087-.168c0-.006-.006-.012-.009-.018l-.03-.059c-.017-.03-.032-.062-.048-.095l-.086-.17-.027-.054-.143-.286-.166-.342a25.798 25.798 0 01-.159-.333c0-.003-.003-.006-.004-.01l-.028-.059-.052-.113-.044-.095c-.014-.033-.024-.052-.036-.078-.047-.108-.098-.215-.146-.322l-.021-.048-.079-.176-.063-.143c-.04-.091-.08-.182-.118-.273l-.035-.08a8.726 8.726 0 01-.055-.13l-.088-.21v-.002a8.55 8.55 0 01-.086-.208l-.052-.127-.034-.084-.119-.297-.059-.148-.072-.188a9.643 9.643 0 01-.064-.167l-.018-.044-.047-.124a7.015 7.015 0 01-.07-.185c-.022-.062-.048-.124-.068-.186a44.62 44.62 0 01-.128-.356l-.122-.35-.028-.078-.059-.175a9.755 9.755 0 01-.068-.2l-.017-.052-.024-.071a9.205 9.205 0 01-.118-.36l-.042-.133v-.005c-.008-.026-.017-.051-.024-.077v-.004c-.025-.079-.048-.159-.075-.238l-.011-.033-.05-.166a73.756 73.756 0 01-.062-.201l-.061-.209-.066-.223-.064-.225a1.714 1.714 0 00-.028-.095l-.027-.098-.012-.044a5.84 5.84 0 01-.048-.177l-.053-.199a86.481 86.481 0 01-.048-.177l-.021-.078-.051-.2a.12.12 0 01-.005-.019l-.013-.05-.074-.298a13.884 13.884 0 01-.07-.286c0-.007-.004-.014-.006-.021a25.636 25.636 0 00-.052-.217l-.008-.036-.056-.244c-.016-.069-.031-.139-.048-.208a5.607 5.607 0 01-.047-.224l-.055-.255-.022-.105-.038-.178c-.024-.116-.048-.232-.069-.347a.852.852 0 01-.01-.051c-.016-.073-.029-.146-.043-.22l-.021-.109-.031-.165a43.08 43.08 0 01-.176-1.01c-.007-.037-.012-.074-.018-.112l-.009-.05-.01-.062a60.5 60.5 0 01-.091-.606l-.062-.435a51.85 51.85 0 01-.245-2.183 49.1 49.1 0 01-.133-1.919l-.013-.274a50.531 50.531 0 01.111-6.247 56.07 56.07 0 01.199-2.02l.047-.403.029-.226c.033-.255.068-.51.105-.764l.076-.51a54.585 54.585 0 01.706-3.708 54.87 54.87 0 01.968-3.673 56.231 56.231 0 01.416-1.325 55.442 55.442 0 014.583-10.291 52.193 52.193 0 01.959-1.604c17.301-2.148 32.605 9.634 48.015 10.288 19.828.84 16.508-16.31 16.47-16.5l.158.317c.211.426.421.855.631 1.286 1.155 2.38 2.313 4.864 3.714 7.333a49.065 49.065 0 001.394 2.31l.131.204c.145.222.292.444.442.667l.227.33c.109.157.219.313.33.47l.158.218c.067.093.134.186.203.278a40.37 40.37 0 00.901 1.168 30.106 30.106 0 00.533.648c.048.054.091.107.137.161.092.108.184.215.277.32l.283.32.289.317a37.705 37.705 0 00.904.945 36.06 36.06 0 00.635.622 34.369 34.369 0 003.397 2.841 30.535 30.535 0 011.077.826l.173.14.171.14.168.142c.232.194.458.39.678.585l.137.125.157.142c.052.048.103.096.156.143l.153.143.151.143.15.143.148.143.146.146c.05.05.095.095.142.146.048.051.096.095.143.147.096.095.188.196.28.294.047.048.092.099.136.148l.136.149c.185.205.366.411.542.619l.152.182c.094.112.186.225.277.34l.101.127.027.034.143.183.026.034.01.013c.045.057.087.114.13.171l.04.054a.043.043 0 01.007.008l.039.054c.014.018.027.035.039.053l.038.048.052.07c.015.022.03.043.047.064l.071.098c.017.023.033.048.048.07a.567.567 0 00.028.04l.082.116.016.024.123.179.073.106.056.084.044.067.079.12.032.047.016.024.074.116.007.01.056.089c.033.05.064.101.096.152l.043.07.051.083.072.119.014.022.1.169.032.055.105.18v.005l.021.037.005.01.105.186.017.03.114.207.022.043.092.173a14.61 14.61 0 01.116.223l.102.2c0 .004.003.006.004.01l.025.047.082.168.029.058.01.022c0 .003.003.006.004.008l.005.01.075.159.014.029.033.073a.36.36 0 01.016.035l.037.078.042.093a.03.03 0 00.004.008l.042.095.028.063.023.052.017.038.095.219.006.015.092.22.015.036.071.18c.006.011.01.023.015.035a.928.928 0 01.016.04l.072.187a.005.005 0 010 .005l.005.01.005.017.029.074c.009.028.016.04.023.062.016.044.033.088.047.133.007.018.015.037.021.056l.03.083.021.058.01.029.071.202a10.031 10.031 0 01.062.183l.022.065.012.039.009.028v.005c.012.032.022.064.032.098l.008.024v.007l.009.029.005.016.016.051.06.19.011.04.056.184.02.068a8.808 8.808 0 00.069.238l.053.19.063.243.055.215v.004l.037.156v.004c.005.022.011.043.015.065l.01.039.012.052.043.19a2.914 2.914 0 01.027.13l.023.102.003.017.021.101.021.099.007.036.047.238.027.143.013.068.027.152.015.084c0 .013.004.026.006.038l.006.034.034.207a.61.61 0 01.007.048l.024.16c.006.03.01.06.014.09l.02.14c0 .016.005.032.007.047l.03.228.029.228.007.063c.01.076.018.153.026.228l.021.204v.014l.003.03v.02a15.042 15.042 0 01.045.513c0 .027.005.055.006.083l.007.087.01.153v.005c0 .022.003.043.004.065l.012.216v.023c.005.08.009.158.012.238l.007.174c0 .022 0 .042.003.064v.008c0 .055.004.11.004.165 0 .022 0 .043.003.064v.084l.003.153V78.02c.022.106.023.19.022.272z" fill="#EDE4FF"/>
    <path fill-rule="evenodd" clip-rule="evenodd" d="M334.779 78.293V78.746c0 .075-.003.149-.005.223v.119c0 .036 0 .074-.003.111 0 .064-.005.127-.008.19v.047c-.003.093-.008.185-.013.277l-.003.071-.012.188a32.31 32.31 0 01-.177 1.932l-.028.224a48.16 48.16 0 01-.143.993l-.055.326-.038.217c-.026.143-.052.285-.08.428-.04.214-.083.427-.128.637-.029.143-.06.28-.091.419l-.142.62a38.176 38.176 0 01-.479 1.792c-.037.127-.076.254-.114.38a40.641 40.641 0 01-.54 1.653 42.086 42.086 0 01-1.378 3.453l-.121.267a43.266 43.266 0 01-.937 1.914l-.048.091-.092.175c-.048.086-.089.167-.132.244l-.082.15a6.65 6.65 0 01-.114.204 12.37 12.37 0 01-.133.235l-.086.148-.047.083-.023.038-.04.067a5.95 5.95 0 01-.095.153c-4.922 7.421-12.646 14.086-21.874 18.343-.943.435-1.902.845-2.876 1.229a51.824 51.824 0 01-12.84 3.259 48.62 48.62 0 01-5.299.352 47.414 47.414 0 01-14.798-2.21c-7.032-2.223-14.069-6.218-20.766-12.42-.077-.07-.151-.14-.227-.211-.106-.099-.212-.2-.316-.3l-.057-.055-.294-.285-.109-.108c-.047-.044-.089-.088-.134-.132l-.111-.111-.173-.174-.104-.106-.243-.248-.251-.264-.065-.068-.09-.095-.179-.191c-.025-.026-.047-.052-.074-.079l-.16-.174-.01-.011-.015-.018-.245-.269c-.07-.079-.142-.158-.21-.239l-.052-.059-.069-.077-.198-.229-.081-.095-.194-.228-.034-.04a20.821 20.821 0 01-.191-.227l-.025-.031-.052-.062-.207-.251-.169-.209-.148-.185-.084-.106-.078-.099-.005-.007a7.445 7.445 0 01-.17-.218 27.912 27.912 0 01-.099-.126l-.206-.27-.052-.07-.128-.17-.042-.057-.016-.02-.228-.311-.003-.004a63.002 63.002 0 01-.229-.318l-.048-.07a22.1 22.1 0 01-.175-.249l-.048-.07c-.058-.082-.116-.165-.173-.25l-.219-.32-.107-.161-.107-.162-.023-.035-.173-.265-.013-.019-.027-.042c-.062-.095-.124-.193-.185-.29l-.205-.326-.022-.036-.113-.182-.092-.151a50.383 50.383 0 01-.369-.619l-.005-.007-.184-.318c0-.003-.002-.005-.003-.007l-.191-.333a19.814 19.814 0 01-.128-.23l-.122-.224-.129-.238-.123-.232-.043-.08-.004-.007-.174-.334c0-.005-.005-.01-.009-.017a8.311 8.311 0 00-.077-.152c-.027-.05-.058-.113-.086-.17l-.028-.054-.143-.286-.166-.342-.162-.343-.028-.059-.053-.113-.079-.172c-.048-.108-.098-.214-.147-.322l-.021-.048-.143-.321a27.37 27.37 0 01-.118-.273l-.034-.08-.143-.34v-.003l-.137-.333-.034-.084a18.504 18.504 0 01-.12-.297l-.131-.334c-.021-.055-.043-.111-.063-.167l-.064-.168a6.527 6.527 0 01-.07-.186c-.022-.062-.047-.124-.068-.185a44.62 44.62 0 01-.128-.357c-.041-.116-.082-.232-.122-.35a11.98 11.98 0 01-.1-.291l-.022-.063-.033-.095-.017-.053-.024-.072a4.939 4.939 0 00-.045-.135l-.045-.14a2.424 2.424 0 01-.028-.085l-.042-.132v-.006c-.008-.026-.017-.05-.024-.076v-.004c-.025-.08-.048-.159-.075-.238l-.011-.034-.05-.165a73.756 73.756 0 01-.054-.177l-.007-.025-.062-.208-.066-.224-.063-.224-.017-.055c-.005-.018-.007-.029-.012-.043-.008-.033-.018-.065-.027-.098l-.012-.044a5.761 5.761 0 01-.048-.176l-.053-.2-.048-.177-.021-.078-.051-.2a.12.12 0 01-.005-.019l-.013-.05a642.392 642.392 0 00-.145-.584c0-.007-.003-.014-.005-.021l-.052-.217-.008-.036-.056-.243-.048-.209a7.957 7.957 0 01-.048-.223l-.055-.256-.022-.104-.037-.179c-.024-.116-.048-.231-.07-.347a15.759 15.759 0 01-.053-.27l-.02-.11-.032-.165-.056-.306c-.042-.234-.082-.469-.12-.703l-.018-.113-.018-.112a59.65 59.65 0 01-.092-.606c12.267-19.065 38.348-9.795 54.96-3.483 14.917 5.666 30.251-6.677 36.875-13.072l.153.182c.093.112.185.225.276.34l.101.127.028.035.142.182.013.016a.13.13 0 00.014.018c.004.006.006.01.01.013l.13.171.04.054.085.115.037.048.052.07.047.064.071.098a.817.817 0 01.048.07l.028.04.082.116c.005.009.011.017.017.024l.122.179.13.19.043.067.079.119c.01.017.022.033.032.048l.017.024c.024.038.047.077.074.116l.006.01.057.089.095.151.044.072.05.082.073.118.013.023.1.168.032.056.105.18v.005l.021.037.006.01.104.186.018.03.113.207.023.043.024.045.048.088.021.04.011.022c.035.067.071.133.104.2l.028.053c.025.047.047.099.074.148 0 .003.003.006.005.01l.024.047c.027.056.056.112.082.168l.029.058.01.022.004.008.005.01.075.159.014.028.034.074.015.034.011.022.026.057.042.092a.03.03 0 00.004.009l.043.095.027.063.023.052.017.038.063.145.031.074.006.014.092.22.015.037.045.112.026.067.015.035a3.33 3.33 0 00.064.16l.026.068v.005l.004.01.006.016c.009.025.019.048.028.075.01.027.016.04.023.062l.048.132.021.057.029.082.021.059.01.029.071.202.003.01.028.08.031.093.034.104.01.028v.005c.011.031.021.064.031.098l.008.023v.008a.998.998 0 01.009.029l.005.016a6.964 6.964 0 01.076.242l.012.038.055.184.02.07.055.19.014.047.053.19.064.243.054.214v.005l.038.156v.004c.008.034.015.07.024.103l.012.053.044.19.027.124v.005l.022.103.003.016.021.102.021.099.007.036.031.157.016.082.027.143.013.068.027.151.015.085c0 .013.004.025.006.038a.23.23 0 01.005.034l.015.085.02.122.007.048.024.16c.005.03.01.06.013.09l.021.14c0 .016.005.032.007.047l.03.227.029.229.007.063.026.228.021.203v.015l.003.03v.02c.013.122.023.244.033.366l.012.146c0 .028.004.056.006.083l.007.088.01.152v.006c0 .022.003.043.004.065l.005.092.007.124v.034l.011.226.004.114c0 .04.004.083.005.124v.008c0 .055.004.11.005.164V77.612c0 .052.003.102.004.153V78.048c.009.08.01.163.009.245z" fill="#E4DBFA"/>
    <path fill-rule="evenodd" clip-rule="evenodd" d="M334.779 78.292V78.746c0 .074-.003.148-.006.222v.119c0 .037 0 .074-.003.111 0 .064-.004.128-.007.19v.048l-.013.276-.004.072-.011.187-.011.173a26.074 26.074 0 01-.114 1.311l-.052.448-.029.224a37.554 37.554 0 01-.197 1.319l-.038.217c-.026.143-.052.286-.08.429a36.528 36.528 0 01-.219 1.056l-.143.618a38.198 38.198 0 01-.593 2.174 37.656 37.656 0 01-.539 1.652 43.23 43.23 0 01-.881 2.302l-.063.151a66.634 66.634 0 01-.434 1l-.122.267c-.16.35-.316.679-.465.983-.075.152-.147.297-.218.437l-.155.304a8.602 8.602 0 01-.098.19l-.048.091c-.031.061-.063.12-.093.176-.048.085-.089.166-.131.244l-.082.15c-.04.071-.078.142-.114.203l-.134.236-.085.147c-.017.03-.034.057-.048.084l-.022.038-.041.066c-.06.101-.095.154-.095.154-4.922 7.42-12.645 14.085-21.873 18.342-.944.436-1.903.845-2.877 1.229-4.064 1.599-8.377 2.729-12.839 3.259a48.404 48.404 0 01-5.299.352 47.422 47.422 0 01-14.799-2.21c-7.032-2.223-14.068-6.218-20.766-12.42l-.226-.211c-.107-.099-.212-.2-.317-.3l-.056-.054-.295-.286-.108-.108c-.048-.044-.09-.088-.134-.132a14.15 14.15 0 01-.284-.285l-.105-.106-.242-.248c-.084-.088-.168-.175-.251-.264l-.065-.068-.091-.095-.178-.19-.074-.08-.161-.174-.01-.011-.015-.018-.244-.269c-.071-.079-.143-.157-.211-.238l-.052-.059-.068-.078a21.748 21.748 0 01-.279-.324 10.64 10.64 0 01-.195-.228l-.034-.04-.19-.227-.026-.031-.051-.062-.208-.251-.168-.209-.149-.185-.084-.106-.078-.099-.005-.006c-.057-.073-.114-.143-.17-.219a5.578 5.578 0 01-.098-.126l-.206-.27-.053-.07a14.425 14.425 0 01-.127-.17c-.014-.02-.029-.037-.043-.056l-.015-.02a50.556 50.556 0 01-.229-.312l-.002-.004a21.001 21.001 0 01-.229-.318l-.048-.07-.176-.249-.047-.069-.174-.25-.218-.321-.107-.161-.108-.162-.022-.034-.174-.266a.16.16 0 00-.013-.019l-.026-.041-.185-.29a44.768 44.768 0 01-.206-.327l-.022-.035-.112-.183-.092-.15a66.006 66.006 0 01-.37-.62l-.004-.007-.184-.317c0-.003-.003-.005-.004-.008l-.19-.333a20.677 20.677 0 01-.25-.453 21.793 21.793 0 01-.253-.47l-.042-.08-.004-.008-.174-.333c0-.006-.006-.012-.009-.018l-.078-.152-.086-.17-.027-.054-.143-.286-.166-.342-.163-.343-.028-.059a5.7 5.7 0 00-.052-.113l-.08-.172c-.047-.107-.098-.214-.146-.322l-.021-.047-.143-.322c-.04-.091-.08-.182-.118-.273l-.034-.08c-.048-.112-.096-.225-.143-.34v-.002l-.138-.334-.034-.084-.119-.297-.131-.334a9.643 9.643 0 01-.064-.167 11.484 11.484 0 00-.064-.168l-.069-.185c-.022-.062-.048-.124-.069-.186a44.554 44.554 0 01-.127-.351v-.005c-.041-.117-.083-.233-.123-.35l-.087-.253-.013-.04-.022-.062-.032-.095-.018-.053-.023-.072-.012-.032-.033-.103-.046-.14c-.009-.028-.019-.056-.027-.085l-.043-.132v-.006l-.024-.076v-.004c-.025-.08-.047-.159-.074-.238a.445.445 0 01-.011-.034l-.051-.165c-.016-.056-.036-.118-.054-.177a.204.204 0 00-.007-.024l-.061-.209c-.021-.07-.045-.149-.066-.224l-.064-.224-.016-.055-.012-.042-.027-.099-.013-.044-.047-.176-.054-.2-.047-.177-.021-.078-.051-.2a.122.122 0 01-.005-.018l-.014-.051c13.173-.91 28.187 7.09 42.776 11.993 7.405 2.489 14.7 4.18 21.59 3.504 2.453-.24 4.857-.781 7.193-1.692 19.879-7.753 24.727-20.59 24.764-20.69V77.626l.003.152V78.06c-.004.066-.003.15-.004.232z" fill="#BEB2DA"/>
    <path d="M287.939 20.003c15.264-.217 21.112 13.441 21.112 13.441M285.506 20.324s-5.309.154-7.308.62" stroke="#E4DBFA" stroke-width=".152" stroke-linecap="round"/>
    <path fill-rule="evenodd" clip-rule="evenodd" d="M252.954 93.297s.333 4.548 1.508 5.084c1.174.537 2.759-.587 2.606-1.481-.153-.895-2.095-5.596-3.194-4.804-1.098.792-.92 1.201-.92 1.201z" fill="#FED194"/>
    <path fill-rule="evenodd" clip-rule="evenodd" d="M253.139 94.886s.598.744.922 1.034c.323.29.596.545.698.46.103-.085.536-1.572.017-1.96-.519-.387-1.754-.425-1.754-.425l.117.891z" fill="#F59D4E"/>
    <path fill-rule="evenodd" clip-rule="evenodd" d="M307.506 115.167c-.944.435-1.903.845-2.877 1.229-4.064 1.599-8.377 2.728-12.84 3.258-.308-1.068-3.38-11.659-4.038-10.567-.362.605-.86 5.966-1.25 10.909a47.432 47.432 0 01-14.799-2.211c-.381-6.003-.745-13.254-.964-17.815-.13-2.7-.208-4.456-.208-4.456l.56.044 10.132.783 21.013 1.625.576 1.879 3.653 11.922v.003l.17.554.003.011.137.448.732 2.384z" fill="#663E36"/>
    <path fill-rule="evenodd" clip-rule="evenodd" d="M307.505 115.167a55.57 55.57 0 01-2.876 1.229c-5.29-13.853-13.502-11.754-19.79-11.754-6.965 0-14.101-4.672-14.101-4.672-.13-2.7-.208-4.456-.208-4.456l.56.044 10.132.783 21.013 1.625.576 1.879 3.653 11.922v.003l.17.555.003.01.137.448.731 2.384z" fill="#59302A"/>
    <path fill-rule="evenodd" clip-rule="evenodd" d="M302.234 97.965l4.23 13.805c-2.127-6.494-8.079-9.439-16.974-9.81-9.142-.383-16.611-3.277-16.611-3.277s-.929-1.06-1.79-3.124l31.145 2.406z" fill="#42211D"/>
    <path fill-rule="evenodd" clip-rule="evenodd" d="M272.879 98.68s16.729 4.291 29.865.948l-1.088-3.594-28.777 2.647z" fill="#27140E"/>
    <path fill-rule="evenodd" clip-rule="evenodd" d="M269.022 95.597v2.682s16.428 2.07 28.386.46c0 0 4.54-.404 5.336-1.007l-.584-3.975-33.138 1.84z" fill="#fff"/>
    <path fill-rule="evenodd" clip-rule="evenodd" d="M290.458 43.462s-1.703 1.497-1.148 2.571c.556 1.074-3.545-.941-2.441-2.45 1.105-1.51 5.058-5.164 5.215-3.243.157 1.922-1.626 3.122-1.626 3.122z" fill="#72120C"/>
    <path fill-rule="evenodd" clip-rule="evenodd" d="M278.88 33.498s-1.096 2.65-1.101 5.149c-.005 2.5.131 5.166 1.299 6.619 1.168 1.453 3.131 1.69 3.131 1.69s.006 3.1-.49 3.866c-.496.765 1.035 4.837 2.147 4.576 1.112-.261 2.498-.663 3.306-2.804.808-2.14 1.271-1.036 1.271-1.036s-.859-5.043-.443-5.884c.417-.841 1.907-2.96 2.201-4.18 0 0 1.142.066 1.886-.596.744-.663 1-2.717-.139-2.849 0 0 .908-3.36.358-4.513-.549-1.152-5.988-3.512-6.939-3.585-.95-.073-6.487 3.547-6.487 3.547z" fill="#FED194"/>
    <path fill-rule="evenodd" clip-rule="evenodd" d="M281.67 54.463s-1.482 1.428-.255 3.662c1.226 2.234.032 5.79 3.729 3.372s5.417-3.168 4.003-4.837c-1.143-1.35-3.088-3.004-4.292-2.947l-.476.869-.449-.839c-.636-.088-2.26.72-2.26.72z" fill="#BBC3C4"/>
    <path fill-rule="evenodd" clip-rule="evenodd" d="M302.583 95.865s-14.831 3.028-31.31.575c0 0-.945-.128-3.398-.18l2.453-41.035s1.876-.88 4.017-1.732c1.679-.666 3.523-1.317 4.746-1.508 2.785-.435 1.993 3.449 1.993 3.449s1.265 3.832 3.296 3.526c2.032-.306 3.372-3.735 3.372-3.735s2.606-3.432 3.833-3.394c0 0 1.303.19 2.989.498 1.687.308 4.407 1.19 4.867 1.762l1.169 14.238.095 1.169s2.721 19.967 1.878 26.367z" fill="#6D378F"/>
    <path fill-rule="evenodd" clip-rule="evenodd" d="M302.583 95.865S291 98.23 276.932 97.086a85.612 85.612 0 01-5.659-.646s-.945-.128-3.398-.18l1.652-27.636.801-13.399s1.876-.88 4.017-1.732c0 0 3.757 19.8 11.878 22.29 8.122 2.491 13.333-7.243 13.333-7.243s.401-.104 1.055-.21l.095 1.169s.135.987.333 2.593c.474 3.8 1.314 11.066 1.603 16.908.14 2.79.153 5.256-.059 6.865z" fill="#582279"/>
    <path fill-rule="evenodd" clip-rule="evenodd" d="M302.641 88.998c-5.527 2.255-15.97 6.194-25.713 8.086a85.546 85.546 0 01-5.659-.647s-.945-.127-3.398-.179l1.652-27.636c.486-.511.926-.788 1.285-.774 3.756.153 8.432 4.934 8.432 4.934s2.835 15.17 20.388.442c.491-.413.96-.79 1.407-1.135.477 3.802 1.317 11.068 1.606 16.909z" fill="#42115F"/>
    <path fill-rule="evenodd" clip-rule="evenodd" d="M250.843 52.093l5.192 19.971 17.067-4.043 3.996-3.254-3.99-16.682-4.761-.672-17.504 4.68z" fill="#FDAC2A"/>
    <path opacity=".5" fill-rule="evenodd" clip-rule="evenodd" d="M273.002 47.68l4.094 17.087-3.974 3.24-.022.013-1.685-7.029-3.244-13.532-.001-.001h.005l.73.034 4.097.188z" fill="#C40"/>
    <path opacity=".5" fill-rule="evenodd" clip-rule="evenodd" d="M259.531 62.03c-2.626-.719-5.31-2.064-7.042-3.642l3.547 13.677 17.066-4.043-1.685-7.03c-3.586 1.388-8.368 2.002-11.886 1.039z" fill="#C40"/>
    <path fill-rule="evenodd" clip-rule="evenodd" d="M257.42 50.26l1.174 4.586c.71-.238 1.421-.491 2.12-.801l-1.121-4.418-2.173.633zM268.647 63.77c-.714.321-1.418.648-2.125.95l1.271 4.761 2.2-.662-1.346-5.049z" fill="#000"/>
    <path fill-rule="evenodd" clip-rule="evenodd" d="M268.32 52.257l-4.766 1.079-.799-2.855 4.773-1.119.792 2.895z" fill="#EAECED"/>
    <path fill-rule="evenodd" clip-rule="evenodd" d="M264.042 52.88l-.298.07-.601-2.109.299-.072.6 2.112z" fill="#000"/>
    <path fill-rule="evenodd" clip-rule="evenodd" d="M264.101 52.866l-.118.028-.601-2.111.118-.028.601 2.11zM264.35 52.808l-.119.027-.6-2.112.118-.028.601 2.113zM265.099 52.633l-.118.028-.6-2.116.119-.028.599 2.116zM265.645 52.504l-.208.048-.599-2.118.208-.05.599 2.12zM265.852 52.456l-.119.028-.599-2.12.119-.028.599 2.12zM266.102 52.398l-.119.027-.598-2.12.119-.029.598 2.122zM266.65 52.268l-.208.05-.598-2.123.209-.05.597 2.123zM266.858 52.22l-.12.029-.597-2.125.119-.028.598 2.124zM267.363 52.102l-.12.028-.597-2.126.12-.03.597 2.128zM267.869 51.983l-.12.029-.596-2.13.121-.029.595 2.13z" fill="#000"/>
    <path fill-rule="evenodd" clip-rule="evenodd" d="M264.084 61.562a1.372 1.372 0 10.001-2.745 1.372 1.372 0 00-.001 2.745zM267.146 60.347a.737.737 0 100-1.474.737.737 0 000 1.474z" fill="#EDAD8A" opacity=".32"/>
    <path fill-rule="evenodd" clip-rule="evenodd" d="M289.903 66.744s.251.277.867.31c.617.032 3.469.197 3.74-.233.334-.524.061-1.348-.476-1.26-.537.086-4.131 1.183-4.131 1.183z" fill="#42115F"/>
    <path fill-rule="evenodd" clip-rule="evenodd" d="M289.852 65.634l4.254-.171.044 1.118-4.253.17-.045-1.117z" fill="#fff"/>
    <path fill-rule="evenodd" clip-rule="evenodd" d="M247.757 70.447l7.093 27.284 23.317-5.524 5.46-4.445-5.451-22.792-6.506-.917-23.913 6.394z" fill="#FDAC2A"/>
    <path opacity=".5" fill-rule="evenodd" clip-rule="evenodd" d="M278.175 64.97l5.451 22.793-5.431 4.426-.029.018-2.302-9.603-4.432-18.487-.001-.002h.006l.998.046 5.74.81z" fill="#D95F16"/>
    <path fill-rule="evenodd" clip-rule="evenodd" d="M259.625 84.022c-3.588-.982-7.254-2.82-9.619-4.977l4.846 18.687 23.317-5.524-2.302-9.604c-4.902 1.894-11.434 2.735-16.242 1.418z" fill="#FF920F"/>
    <path fill-rule="evenodd" clip-rule="evenodd" d="M256.742 67.942l1.604 6.266c.97-.326 1.942-.671 2.897-1.095l-1.531-6.035-2.97.864zM272.081 86.401c-.974.439-1.938.884-2.905 1.297l1.736 6.507 3.007-.905-1.838-6.899z" fill="#000"/>
    <path fill-rule="evenodd" clip-rule="evenodd" d="M271.635 70.668l-6.512 1.474-1.091-3.9 6.52-1.528 1.083 3.954z" fill="#EAECED"/>
    <path fill-rule="evenodd" clip-rule="evenodd" d="M265.79 71.522l-.408.095-.82-2.882.407-.097.821 2.884z" fill="#000"/>
    <path fill-rule="evenodd" clip-rule="evenodd" d="M265.868 71.502l-.161.038-.821-2.884.162-.038.82 2.884zM266.21 71.423l-.162.038-.82-2.885.161-.039.821 2.886zM267.234 71.182l-.162.038-.819-2.89.162-.039.819 2.891zM267.981 71.008l-.284.067-.818-2.894.284-.068.818 2.895zM268.262 70.944l-.163.037-.817-2.895.162-.04.818 2.897zM268.606 70.862l-.163.038-.817-2.897.163-.04.817 2.899zM269.354 70.686l-.285.068-.817-2.9.286-.069.816 2.901zM269.637 70.62l-.163.038-.816-2.903.163-.038.816 2.903zM270.328 70.46l-.164.038-.815-2.906.164-.04.815 2.907zM271.018 70.297l-.164.038-.814-2.91.164-.038.814 2.91z" fill="#000"/>
    <path fill-rule="evenodd" clip-rule="evenodd" d="M265.846 83.384a1.876 1.876 0 100-3.752 1.876 1.876 0 000 3.752zM270.03 81.724a1.008 1.008 0 100-2.016 1.008 1.008 0 000 2.016z" fill="#EDAD8A" opacity=".32"/>
    <path fill-rule="evenodd" clip-rule="evenodd" d="M288.672 39.547s.571-2.696.017-4.85c-.554-2.153.129-4.613.129-4.613s4.388.625 4.065 3.92c-.323 3.295-.935 4.044-.935 4.044s-1.038-.104-2.281 1.303-.995.197-.995.197z" fill="#72120C"/>
    <path fill-rule="evenodd" clip-rule="evenodd" d="M294.609 38.43c-1.629 4.295-4.15 5.032-4.15 5.032s.832-.939.554-3.599c-.077-.732-.459-1.922-.972-3.26-1.348-3.515-3.601-8.056-3.601-8.056l-1.073-.904s2.762-1.112 5.41.15c1.924.918 5.461 6.343 3.832 10.638z" fill="#6D378F"/>
    <path fill-rule="evenodd" clip-rule="evenodd" d="M292.616 33.317c-1.035 2.423-2.575 3.286-2.575 3.286-1.348-3.515-3.601-8.056-3.601-8.056l-1.073-.905s2.887-1.342 5.41.15l.047.028a4.39 4.39 0 011.792 5.497z" fill="#fff"/>
    <path fill-rule="evenodd" clip-rule="evenodd" d="M290.539 37.983c-.876-2.122-1.686-3.81-2.73-4.959-1.009-1.11-2.234-1.72-3.95-1.74-2.265-.028-3.898 1.532-4.765 2.629a7.86 7.86 0 00-.714 1.053s-.905-1.828-1.772-3.709a1.47 1.47 0 00.174-.401.509.509 0 00.012-.19c-.117-.817.886-2.017-.033-1.869-.242.04-.568.329-.918.734l-.006.008a40.92 40.92 0 01-.34-.81l-.006-.014v-.003a12.164 12.164 0 01-.135-.34c-.153-.397-.26-.717-.3-.92a10.87 10.87 0 01-.165-2.146c.024-1.326.282-2.81 1.062-3.652 1.279-1.38 5.769-1.229 8.918 3.13 3.125 4.324 5.629 13.063 5.668 13.2z" fill="#6D378F"/>
    <path fill-rule="evenodd" clip-rule="evenodd" d="M287.808 33.024c-1.008-1.11-2.234-1.72-3.949-1.74-2.266-.028-3.898 1.532-4.765 2.629a1.109 1.109 0 01-.272-.247 137.976 137.976 0 00-2.039-2.81c-.499-.674-.879-1.184-.879-1.184l-.06-.139-.346-.8-.006-.014v-.003c-.029-.125-.672-3.008 2.028-4.207 2.759-1.227 7.241 2.095 10.103 8.095.07.145.131.285.185.42z" fill="#582279"/>
    <path fill-rule="evenodd" clip-rule="evenodd" d="M288.592 34.048c-.059-.09-2.804-3.194-5.017-1.454-2.16 1.699-6.009 2.565-7.5-.619a5.263 5.263 0 01-.274-.717 3.003 3.003 0 01-.061-.238c-.205-.976.223-1.728 1.022-2.219 1.298-.797 4.295-.286 6.997 1.02 2.102 1.01 4.025 2.502 4.833 4.227z" fill="#72120C"/>
    <path fill-rule="evenodd" clip-rule="evenodd" d="M282.21 46.954s1.199.104 2.631-.42c0 0 .826-.485.088.858-.739 1.342-2.813 1.634-2.813 1.634l.094-2.072z" fill="#F59D4E"/>
    <path fill-rule="evenodd" clip-rule="evenodd" d="M279.586 38.61c.063-.335-.033-.635-.213-.669-.18-.033-.378.212-.44.548-.063.336.033.636.213.67.181.033.378-.212.44-.548zM283.94 39.207c.063-.337-.033-.636-.213-.67-.181-.033-.378.212-.441.548-.062.336.033.636.214.67.18.033.377-.212.44-.548zM283.403 36.531c-.017-.073.088-.126.173-.142.271-.054.95-.131 1.143.38.16.421-.068.322-.099.256-.048-.103-.177-.32-.323-.403-.335-.194-.855.078-.894-.09zM278.428 36.64c-.063-.076.006-.196.079-.263.231-.213.845-.68 1.358-.19.423.401.136.412.064.352-.111-.093-.375-.275-.569-.29-.449-.038-.788.565-.932.39z" fill="#72120C"/>
    <path fill-rule="evenodd" clip-rule="evenodd" d="M280.946 38.681a8.225 8.225 0 01-.174 1.081c-.035.179-.084.354-.129.53-.044.177-.101.35-.158.525a4.384 4.384 0 01-.101.265.733.733 0 01-.037.076l-.011.02-.005.01c0 .003-.005.01-.003.006l.006-.017a.073.073 0 000-.02v-.007-.004.004l.005.007a.335.335 0 00.066.063c.032.024.064.045.098.064.071.04.147.078.226.114.329.137.67.241 1.019.312v.019a3.524 3.524 0 01-1.069-.19 2.085 2.085 0 01-.252-.107.764.764 0 01-.225-.16.237.237 0 01-.039-.062.12.12 0 01.008-.113l.015-.03c.01-.019.019-.04.027-.06.034-.083.063-.168.092-.254.116-.342.221-.69.324-1.036.102-.347.201-.696.299-1.044l.018.008zM280.243 43.514c.801.116 2.21.166 3.456-.578a.038.038 0 01.052.011.039.039 0 01-.007.053c-.7.555-2.064 1.353-3.557.711a.105.105 0 01-.058-.123.104.104 0 01.114-.075zM284.534 40.578a.15.15 0 100-.299.15.15 0 000 .3zM279.157 40.109a.15.15 0 100-.3.15.15 0 000 .3zM285.094 40.827a.106.106 0 100-.212.106.106 0 000 .212zM278.34 39.532a.105.105 0 00.105-.106.105.105 0 10-.211 0c0 .058.047.106.106.106zM278.39 40.872a.106.106 0 100-.211.106.106 0 000 .21zM285.188 40.323a.106.106 0 100-.211.106.106 0 000 .21zM283.889 41.08a.15.15 0 100-.3.15.15 0 000 .3zM284.658 41.5a.191.191 0 100-.383.191.191 0 000 .383zM278.519 40.272a.191.191 0 100-.383.191.191 0 000 .383zM285.44 41.322a.19.19 0 100-.381.19.19 0 000 .381z" fill="#F59D4E"/>
    <path opacity=".67" fill-rule="evenodd" clip-rule="evenodd" d="M288.593 34.048c-.059-.09-2.805-3.193-5.017-1.453-2.16 1.699-6.01 2.564-7.501-.619a5.398 5.398 0 01-.273-.717 3.025 3.025 0 01-.061-.238c1.109 1.54 3.684 1.68 4.997 1.422 2.312-.455 3.007-2.575 3.022-2.622 2.101 1.011 4.025 2.503 4.833 4.227z" fill="#540200"/>
    <path fill-rule="evenodd" clip-rule="evenodd" d="M281.33 50.084s2.18 2.556 2.674 3.799l.375.698.476-.869s3.679-3.952 4.411-4.36c0 0 .17-.153.426.273.255.426 2.861 2.328 2.861 2.328s-2.112.277-3.491 2.628c-1.38 2.35-1.295 2.367-1.295 2.367s-.714-2.111-2.912-3.237l-.476.868-.45-.839s-1.816.667-3.161 3.462c0 0-.205.103-.409-.817-.205-.92-1.891-4.395-2.521-4.548-.631-.153 1.77-.96 2.708-1.482.75-.415.784-.27.784-.27z" fill="#fff"/>
    <path fill-rule="evenodd" clip-rule="evenodd" d="M285.163 91.57c-.823.795-3.33 1.631-5.048 2.09-.773.207-1.385.337-1.613.352-.732.052-4.109.537-4.892.588-.784.051-1.715-.247-1.58-.826.134-.579 1.363-.425 2.47-.714 1.107-.289 2.622-1.226 3.117-1.737.494-.51 1.652-2.18 1.584-2.571-.069-.39.294-.596-1.035-1.124-1.329-.528-1.708-1.6-1.503-2.385.205-.784.374-.05 1.601.46 1.226.511 3.082.58 3.56 1.397.477.818 1.516 1.19 1.516 1.19s.139.1.346.265c.756.606 2.412 2.11 1.477 3.015z" fill="#FED194"/>
    <path fill-rule="evenodd" clip-rule="evenodd" d="M285.163 91.569c-.823.794-3.33 1.63-5.048 2.09 0 0 1.454-.62 2.552-1.667 1.099-1.047.714-3.398.714-3.398.101-.021.203-.036.306-.042.755.607 2.411 2.112 1.476 3.017z" fill="#F59D4E"/>
    <path fill-rule="evenodd" clip-rule="evenodd" d="M309.569 81.545c-.817 2.454-16.353 8.74-17.833 9.401-1.48.663-2.249 0-2.249 0l-5.16 1.429c.459-1.329-1.291-4.445-1.291-4.445 1-.477 4.369-1.687 4.369-1.687 0-.881.69-2.031 2.99-3.18 1.266-.633 3.878-2.776 5.972-4.574 1.709-1.469 3.072-2.708 3.072-2.708s-.23-1.878-1.533-6.362.345-11.497.345-13.566c0-2.069 1.19-1.762 1.19-1.762s1.648-.447 4.663 5.532c3.015 5.978 6.283 19.471 5.465 21.922z" fill="#fff"/>
    <path opacity=".54" fill-rule="evenodd" clip-rule="evenodd" d="M296.368 78.49c1.709-1.468 3.072-2.707 3.072-2.707s-.23-1.878-1.532-6.362c-1.303-4.484.344-11.497.344-13.566 0-2.069 1.191-1.762 1.191-1.762s-.905 1.086-.703 3.896c.203 2.81 1.042 14.518 5.339 16.454 4.296 1.936-7.711 4.048-7.711 4.048z" fill="#D2D7DB"/>
    <path fill-rule="evenodd" clip-rule="evenodd" d="M299.439 75.783s1.358-.754 2.534-.422c1.175.332 1.873.422 1.873.422s1.073.038-1.43-1.29c-2.504-1.33-3.252-.198-3.252-.198l.275 1.488z" fill="#949A9B"/>
    <path opacity=".54" fill-rule="evenodd" clip-rule="evenodd" d="M287.407 86.245s1.095.988 1.622 2.674c.527 1.687.46 2.027.46 2.027l-5.161 1.428s.316-.731-.247-2.114c0 0 3.024.803 3.466-1.07.443-1.874-.14-2.945-.14-2.945z" fill="#D2D7DB"/>
    <path fill-rule="evenodd" clip-rule="evenodd" d="M287.407 86.245s1.095 1.429.839 2.762-1.007 2.565-1.007 2.565l2.25-.624s.025-2.54-2.082-4.703z" fill="#949A9B"/>
    <path fill-rule="evenodd" clip-rule="evenodd" d="M252.734 89.55s-1.246 2.138.654 5.283c0 0 1.152 1.063 1.428.532.277-.531-.459-.831-.557-1.333-.099-.502-.444-2.184-.714-2.9-.271-.717-.811-1.581-.811-1.581z" fill="#FED194"/>
    <path fill-rule="evenodd" clip-rule="evenodd" d="M287.751 109.086c-.362.605-.86 5.966-1.25 10.909a49.493 49.493 0 01-2.693-.048c.684-3.492 1.53-6.897 2.076-8.407 1.276-3.527 1.867-2.454 1.867-2.454zM306.777 112.783a8.992 8.992 0 01-.138-.448l.138.448z" fill="#59302A"/>
    <path d="M18 54c37-16.5 97.5 3.5 112.5-14" stroke="#FF7A00" stroke-width="20"/>
    <path d="M31.38 44.8H28.4v-3.4h6v-2h-8V53h4.98c3.24 0 4.38-1.76 4.38-4.1s-1.14-4.1-4.38-4.1zm0 6.2H28.4v-4.2h2.98c1.66 0 2.38.5 2.38 2.1s-.72 2.1-2.38 2.1zm14.823-3.2c0-2.94-1.24-4.8-4.32-4.8s-4.32 2.06-4.32 5c0 1.78.56 5 5.08 5 .76 0 1.32 0 2.88-.4v-1.96c-1.3.36-2.08.36-2.88.36-2.18 0-2.82-.86-3-2h6.56v-1.2zm-4.32-2.8c1.58 0 2.24.54 2.32 2h-4.62c.12-1.34.8-2 2.3-2zm5.914 3c0 2.94 1.54 5 4.48 5 2.62 0 4.16-1.62 4.16-3.8h-2c-.08 1.04-.5 1.8-2.06 1.8-1.86 0-2.58-.6-2.58-3s.72-3 2.58-3c1.56 0 1.98.76 2.06 1.8h2c0-2.18-1.54-3.8-4.16-3.8-2.94 0-4.48 2.06-4.48 5zm20.244-5h-9.4v10h2v-8h5.4v8h2V43zm12.377 0h-7.64v1.64c-.02 3.46-.2 6.36-2.34 6.36v2c3.98 0 4.34-4.2 4.36-8h3.62v8h2V43zm10.172 8v-8h-7.2v2h5.2v2.2c-.6-.6-1.38-1-2.78-1-2.44 0-3.58 1.56-3.58 3.4 0 1.84 1.14 3.4 3.58 3.4 1.4 0 2.18-.4 2.78-1v1h3.2v-2h-1.2zm-4.18 0c-1.46 0-2.18-.3-2.18-1.4 0-1.1.72-1.4 2.18-1.4 1.46 0 2.18.3 2.18 1.4 0 1.1-.72 1.4-2.18 1.4zm15.547-8h-9.16v2h3.58v8h2v-8h3.58v-2zm8.586 0v4.22h-4.98V43h-2v10h2v-3.78h4.98V53h2V43h-2zm8.596 10c3.04 0 4.78-2.06 4.78-5s-1.74-5-4.78-5-4.78 2.06-4.78 5 1.74 5 4.78 5zm0-2c-2.06 0-2.78-.6-2.78-3s.72-3 2.78-3c2.06 0 2.78.6 2.78 3s-.72 3-2.78 3zm23.82 0v-8h-7.24v.06c0 4.5 0 5.8-1.74 7.94h-1.06v5.2h2V53h8.04v3.2h2V51h-2zm-6.78 0c1.3-1.78 1.52-3 1.54-6h3.24v6h-4.78zm15.167 2c3.04 0 4.78-2.06 4.78-5s-1.74-5-4.78-5-4.78 2.06-4.78 5 1.74 5 4.78 5zm0-2c-2.06 0-2.78-.6-2.78-3s.72-3 2.78-3c2.06 0 2.78.6 2.78 3s-.72 3-2.78 3zm6.783-3c0 2.94 1.54 5 4.48 5 2.62 0 4.16-1.62 4.16-3.8h-2c-.08 1.04-.5 1.8-2.06 1.8-1.86 0-2.58-.6-2.58-3s.72-3 2.58-3c1.56 0 1.98.76 2.06 1.8h2c0-2.18-1.54-3.8-4.16-3.8-2.94 0-4.48 2.06-4.48 5zm18.808-5h-9.16v2h3.58v8h2v-8h3.58v-2zm9.376 8v-8h-7.2v2h5.2v2.2c-.6-.6-1.38-1-2.78-1-2.44 0-3.58 1.56-3.58 3.4 0 1.84 1.14 3.4 3.58 3.4 1.4 0 2.18-.4 2.78-1v1h3.2v-2h-1.2zm-4.18 0c-1.46 0-2.18-.3-2.18-1.4 0-1.1.72-1.4 2.18-1.4 1.46 0 2.18.3 2.18 1.4 0 1.1-.72 1.4-2.18 1.4zM195 47.82v-.32c1.58-.16 2.1-.94 2.1-1.9 0-1.54-.82-2.6-2.92-2.6h-4.66v10h4.66c2.38 0 3.22-1.22 3.22-2.76 0-1.52-.62-2.26-2.4-2.42zM191.52 45h2.44c.92 0 1.14.18 1.14.86 0 .68-.22.86-1.14.86h-2.44V45zm2.32 6h-2.32v-2.28h2.32c1.22 0 1.56.3 1.56 1.14 0 .84-.34 1.14-1.56 1.14zm12.363-8l-4.48 6.16h-.32V43h-2v10h2l4.48-6.16h.32V53h2V43h-2zm14.272 0l-3.78 6.78h-.32l-3.78-6.78h-2v10h2v-5.24h.32l2.32 3.92h2.6l2.32-3.92h.32V53h2V43h-2zM31.68 72.82v-.32c1.58-.16 2.1-.94 2.1-1.9 0-1.54-.82-2.6-2.92-2.6H26.2v10h4.66c2.38 0 3.22-1.22 3.22-2.76 0-1.52-.62-2.26-2.4-2.42zM28.2 70h2.44c.92 0 1.14.18 1.14.86 0 .68-.22.86-1.14.86H28.2V70zm2.32 6H28.2v-2.28h2.32c1.22 0 1.56.3 1.56 1.14 0 .84-.34 1.14-1.56 1.14zm13.723 0v-8h-7.2v2h5.2v2.2c-.6-.6-1.38-1-2.78-1-2.44 0-3.58 1.56-3.58 3.4 0 1.84 1.14 3.4 3.58 3.4 1.4 0 2.18-.4 2.78-1v1h3.2v-2h-1.2zm-4.18 0c-1.46 0-2.18-.3-2.18-1.4 0-1.1.72-1.4 2.18-1.4 1.46 0 2.18.3 2.18 1.4 0 1.1-.72 1.4-2.18 1.4zm18.987-8v8h-3.8v-8h-2v8h-3.8v-8h-2v10h13.6V68h-2zm11.193 6.4c0 1.94 1.14 3.6 4.18 3.6 2.84 0 3.78-1.46 3.78-2.8 0-1.06-.44-1.96-2.18-2.16v-.32c1.44-.14 1.92-.86 1.92-2.12 0-1.14-1.14-2.6-3.58-2.6-2.64 0-3.78 1.66-3.78 3.2h2c0-1 .72-1.2 1.78-1.2.86 0 1.58.2 1.58 1 0 .84-.62.94-1.28.94h-.88v2h.88c.66 0 1.54.1 1.54 1.06 0 .66-.52 1-1.78 1-1.46 0-2.18-.34-2.18-1.6h-2zm18.12 1.6v-8h-7.2v2h5.2v2.2c-.6-.6-1.38-1-2.78-1-2.44 0-3.58 1.56-3.58 3.4 0 1.84 1.14 3.4 3.58 3.4 1.4 0 2.18-.4 2.78-1v1h3.2v-2h-1.2zm-4.18 0c-1.46 0-2.18-.3-2.18-1.4 0-1.1.72-1.4 2.18-1.4 1.46 0 2.18.3 2.18 1.4 0 1.1-.72 1.4-2.18 1.4zm16.168-8h-2.42l-2.74 4.02h-1.62V68h-2v10h2v-3.98h1.62l2.74 3.98h2.42l-3.42-4.98 3.42-5.02zm9.361 8v-8h-7.2v2h5.2v2.2c-.6-.6-1.38-1-2.78-1-2.44 0-3.58 1.56-3.58 3.4 0 1.84 1.14 3.4 3.58 3.4 1.4 0 2.18-.4 2.78-1v1h3.2v-2h-1.2zm-4.18 0c-1.46 0-2.18-.3-2.18-1.4 0-1.1.72-1.4 2.18-1.4 1.46 0 2.18.3 2.18 1.4 0 1.1-.72 1.4-2.18 1.4zm7.172-1.6c0 1.94 1.14 3.6 4.18 3.6 2.84 0 3.78-1.46 3.78-2.8 0-1.06-.44-1.96-2.18-2.16v-.32c1.44-.14 1.92-.86 1.92-2.12 0-1.14-1.14-2.6-3.58-2.6-2.64 0-3.78 1.66-3.78 3.2h2c0-1 .72-1.2 1.78-1.2.86 0 1.58.2 1.58 1 0 .84-.62.94-1.28.94h-.88v2h.88c.66 0 1.54.1 1.54 1.06 0 .66-.52 1-1.78 1-1.46 0-2.18-.34-2.18-1.6h-2zm26.548-6.4h-9.4v10h2v-8h5.4v8h2V68zm7.382 0c-1.4 0-2.38.54-2.98 1.2V68h-2v13.2h2v-4.4c.6.66 1.58 1.2 2.98 1.2 3.24 0 4.38-2.06 4.38-5s-1.14-5-4.38-5zm-.3 8c-1.96 0-2.68-.6-2.68-3s.72-3 2.68-3c1.96 0 2.68.6 2.68 3s-.72 3-2.68 3zm13.287-8l-4.48 6.16h-.32V68h-2v10h2l4.48-6.16h.32V78h2V68h-2zM35.6 93h-9.4v10h2v-8h5.4v8h2V93zm6.586 10c3.04 0 4.78-2.06 4.78-5s-1.74-5-4.78-5-4.78 2.06-4.78 5 1.74 5 4.78 5zm0-2c-2.06 0-2.78-.6-2.78-3s.72-3 2.78-3c2.06 0 2.78.6 2.78 3s-.72 3-2.78 3zm15.763-8h-2.42l-2.74 4.02h-1.62V93h-2v10h2v-3.98h1.62l2.74 3.98h2.42l-3.42-4.98 3.42-5.02zm8.55 0v4.6c0 2-.72 2.6-2.48 2.6s-2.48-.6-2.48-2.6V93h-2v4.6c0 2.54 1.14 4.6 4.18 4.6 1.2 0 2.18-.54 2.78-1.2v3.2h-5.6v2h7.6V93h-2zm13.808 0h-9.4v10h2v-8h5.4v8h2V93zm11.177 0h-2.42l-2.74 4.02h-1.62V93h-2v10h2v-3.98h1.62l2.74 3.98h2.42l-3.42-4.98 3.42-5.02zm9.426 4.8c0-2.94-1.24-4.8-4.32-4.8s-4.32 2.06-4.32 5c0 1.78.56 5 5.08 5 .76 0 1.32 0 2.88-.4v-1.96c-1.3.36-2.08.36-2.88.36-2.18 0-2.82-.86-3-2h6.56v-1.2zM96.59 95c1.58 0 2.24.54 2.32 2h-4.62c.12-1.34.8-2 2.3-2zm18.096 8c3.04 0 4.78-2.06 4.78-5s-1.74-5-4.78-5-4.78 2.06-4.78 5 1.74 5 4.78 5zm0-2c-2.06 0-2.78-.6-2.78-3s.72-3 2.78-3c2.06 0 2.78.6 2.78 3s-.72 3-2.78 3zm15.943-8h-9.16v2h3.58v8h2v-8h3.58v-2zm15.344 5c1.76-1.66 2.62-2.66 2.62-4.6 0-1.94-1.14-4-4.38-4s-4.38 2.06-4.38 4.6h2c0-2 .72-2.6 2.38-2.6s2.38.6 2.38 2c0 1.46-.72 2.14-2.58 3.74l-4.18 3.86v2h8.56v-2h-5.56l3.14-3zm10.257-8.6c-4.16 0-5.44 3-5.44 6.8s1.28 6.8 5.44 6.8 5.44-3 5.44-6.8-1.28-6.8-5.44-6.8zm3.44 6.8c0 1.14-.08 2.06-.28 2.74l-5.08-7.18c.48-.26 1.12-.36 1.92-.36 2.66 0 3.44 1.18 3.44 4.8zm-6.88 0c0-1.14.08-2.04.26-2.74l5.1 7.18c-.5.26-1.12.36-1.92.36-2.68 0-3.44-1.18-3.44-4.8zm16.33-6.8c-4.16 0-5.44 3-5.44 6.8s1.28 6.8 5.44 6.8 5.44-3 5.44-6.8-1.28-6.8-5.44-6.8zm3.44 6.8c0 1.14-.08 2.06-.28 2.74l-5.08-7.18c.48-.26 1.12-.36 1.92-.36 2.66 0 3.44 1.18 3.44 4.8zm-6.88 0c0-1.14.08-2.04.26-2.74l5.1 7.18c-.5.26-1.12.36-1.92.36-2.68 0-3.44-1.18-3.44-4.8zm16.331-6.8c-4.16 0-5.44 3-5.44 6.8s1.28 6.8 5.44 6.8 5.44-3 5.44-6.8-1.28-6.8-5.44-6.8zm3.44 6.8c0 1.14-.08 2.06-.28 2.74l-5.08-7.18c.48-.26 1.12-.36 1.92-.36 2.66 0 3.44 1.18 3.44 4.8zm-6.88 0c0-1.14.08-2.04.26-2.74l5.1 7.18c-.5.26-1.12.36-1.92.36-2.68 0-3.44-1.18-3.44-4.8zm18.818 6.8v-2.72h-1.74v-1.3h1.74V97.2h-1.74v-1.52h1.74v-6.96h3.76c1.747 0 3.04.353 3.88 1.06.854.707 1.28 1.733 1.28 3.08 0 1.36-.46 2.427-1.38 3.2-.92.76-2.273 1.14-4.06 1.14h-1.68v1.78h3.3v1.3h-3.3V103h-1.8zm1.8-7.32h1.42c1.214 0 2.154-.2 2.82-.6.68-.4 1.02-1.12 1.02-2.16 0-.907-.28-1.58-.84-2.02-.56-.44-1.433-.66-2.62-.66h-1.8v5.44z" fill="#fff"/>
</svg>
