<svg width="355" height="140" viewBox="0 0 355 140" fill="none" xmlns="http://www.w3.org/2000/svg">
<rect width="355" height="140" rx="5" fill="#FFD8EF"/>
<path d="M219.833 40.666H246.833V75.666H219.833V40.666Z" fill="url(#paint0_linear)"/>
<path opacity="0.1" d="M329.888 115.508C329.888 116.042 303.722 117.999 271.444 117.999C239.166 117.999 213 116.042 213 115.508C213 114.974 239.166 114.542 271.444 114.542C303.722 114.542 329.888 114.974 329.888 115.508Z" fill="#324D8D"/>
<path d="M222.645 83.9963C222.645 83.7626 222.834 83.5732 223.068 83.5732H238.014C238.248 83.5732 238.437 83.7626 238.437 83.9963V114.594C238.437 114.828 238.248 115.017 238.014 115.017H223.068C222.834 115.017 222.645 114.828 222.645 114.594V83.9963Z" fill="url(#paint1_linear)"/>
<path d="M223.35 84.842C223.35 84.6083 223.539 84.4189 223.773 84.4189H237.168C237.402 84.4189 237.591 84.6083 237.591 84.842V96.8273C237.591 97.0609 237.402 97.2503 237.168 97.2503H223.773C223.539 97.2503 223.35 97.0609 223.35 96.8273V84.842Z" fill="url(#paint2_linear)"/>
<path d="M223.491 99.3664C223.491 99.1327 223.68 98.9434 223.914 98.9434H237.309C237.543 98.9434 237.732 99.1327 237.732 99.3664V111.352C237.732 111.585 237.543 111.775 237.309 111.775H223.914C223.68 111.775 223.491 111.585 223.491 111.352V99.3664Z" fill="url(#paint3_linear)"/>
<path d="M217.64 84.8176C217.639 84.7504 217.686 84.6922 217.752 84.6786L222.897 83.6094C222.985 83.5912 223.067 83.6585 223.067 83.7481L222.927 114.824C222.927 114.894 222.874 114.954 222.804 114.963L218.008 115.562C217.924 115.573 217.85 115.508 217.849 115.423L217.64 84.8176Z" fill="url(#paint4_linear)"/>
<path d="M228.572 89.5779C228.578 89.3483 228.765 89.165 228.995 89.165H230.864C231.095 89.165 231.283 89.3499 231.287 89.5806L231.413 96.7718C231.417 97.0083 231.227 97.2023 230.99 97.2023H228.822C228.585 97.2023 228.394 97.0066 228.4 96.7691L228.572 89.5779Z" fill="#FFBBB6"/>
<path d="M226.249 89.5881C226.249 89.3544 226.438 89.165 226.672 89.165H228.724C228.955 89.165 229.143 89.3499 229.147 89.5806L229.273 96.7718C229.277 97.0083 229.086 97.2023 228.85 97.2023H226.672C226.438 97.2023 226.249 97.0129 226.249 96.7793L226.249 89.5881Z" fill="url(#paint5_linear)"/>
<path d="M223.499 89.589C223.499 89.3554 223.689 89.166 223.922 89.166H226.115C226.346 89.166 226.534 89.3509 226.538 89.5816L226.664 96.7728C226.668 97.0093 226.478 97.2033 226.241 97.2033H223.922C223.689 97.2033 223.499 97.0139 223.499 96.7802V89.589Z" fill="url(#paint6_linear)"/>
<path d="M312.323 79.273C317.716 93.329 311.691 115.333 291.999 115.333C270.166 115.333 246.43 119.036 241.75 106.839C236.356 92.7834 249.537 74.9684 268.674 67.6248C287.811 60.2812 306.929 65.2171 312.323 79.273Z" fill="url(#paint7_linear)"/>
<path opacity="0.5" d="M239.751 108.833C254.807 111.805 284.168 114.666 298.084 104.833C313.148 94.1889 312.418 74.4993 303.751 63.916" stroke="white" stroke-width="0.189333" stroke-linecap="round" stroke-dasharray="0.38 0.95"/>
<path d="M280.316 94.9245C278.906 97.4062 274.605 97.7446 272.631 97.6036L281.233 77.5105L300.903 71.7998C301.279 71.9878 301.636 73.1534 300.057 76.3119C298.083 80.2601 289.622 83.1506 287.366 84.0672C285.11 84.9837 282.079 91.8224 280.316 94.9245Z" fill="#835FD2" fill-opacity="0.5"/>
<path d="M270.852 67.9377L270.373 72.9984V74.9725H273.754C273.836 74.9725 273.905 74.9103 273.913 74.8285L274.587 68.2269C274.596 68.1372 274.529 68.0577 274.44 68.0509L271.024 67.7931C270.937 67.7865 270.86 67.8508 270.852 67.9377Z" fill="url(#paint8_linear)"/>
<path d="M270.61 81.7381L272.49 80.5417L274.253 82.8683L273.054 86.8164C271.033 87.2394 266.568 88.0996 264.876 88.156C262.761 88.2265 261.915 86.8164 262.267 84.7719C262.604 82.8215 269.106 75.2541 269.035 74.9721C268.965 74.69 269.177 72.0815 269.318 71.588C269.459 71.0945 272.49 70.8124 273.054 71.0945C273.398 71.2663 272.44 71.8721 271.622 72.3379C271.485 72.4156 271.558 72.6384 271.714 72.6231C272.277 72.568 272.909 72.5364 273.054 72.6455C273.257 72.7976 272.601 73.7206 272.143 74.2983C272.077 74.3811 272.123 74.4874 272.226 74.4626C272.569 74.3799 273.009 74.1172 273.054 74.4786C273.107 74.9053 271.799 78.7499 270.404 81.5514C270.34 81.6807 270.488 81.8156 270.61 81.7381Z" fill="#FEA199"/>
<path d="M270.318 87.3558C268.838 87.6327 267.207 87.9122 266.003 88.0569C267.651 87.343 271.828 84.5189 274.072 82.6279L274.144 82.7223L270.318 87.3558Z" fill="#E18379"/>
<path d="M302.17 72.645C301.719 74.6754 294.768 76.8516 291.525 77.6506L290.326 72.3629C290.326 72.3629 285.109 73.0679 283.346 73.2795C281.584 73.491 279.539 73.7166 279.257 73.491C279.047 73.323 279.098 72.9492 279.234 72.6431C279.288 72.5217 279.205 72.3589 279.075 72.3352C278.763 72.2786 278.411 72.1139 278.411 71.6579C278.411 70.9891 279.328 71.1644 279.046 70.8119C278.525 70.1616 278.74 70.0364 279.046 69.6134C282.03 69.4959 289.677 68.5276 294.979 68.1328C301.606 67.6393 302.734 70.1069 302.17 72.645Z" fill="#FEA199"/>
<path d="M279.996 69.56C281.545 69.4523 283.763 69.2248 286.172 68.9746L284.756 70.8829C284.515 71.4388 284.387 72.1918 284.281 72.8162C284.259 72.9406 284.239 73.0598 284.219 73.1714C283.88 73.2145 283.582 73.2517 283.346 73.28C282.289 73.4068 281.131 73.5387 280.312 73.5754C280.672 72.9253 281.084 72.1307 280.808 72.2225C280.115 72.4535 279.517 71.2164 279.996 69.56Z" fill="#FC98A6"/>
<path d="M290.338 72.4225L290.325 72.3632C290.325 72.3632 287.087 72.8008 284.851 73.0899C286.716 72.4552 292.933 71.3057 292.933 71.3057L290.338 72.4225Z" fill="#E18379"/>
<path d="M299.296 74.9902C296.874 76.1599 293.506 77.1628 291.524 77.6512L291.223 76.3204C291.526 76.6027 291.894 76.8757 292.511 76.8757C293.01 76.8757 294.823 76.3156 296.486 75.8016C297.679 75.4329 298.796 75.0879 299.296 74.9902Z" fill="#FC98A6"/>
<path d="M301.787 73.3326C301.987 73.1032 302.12 72.8735 302.171 72.6456C302.468 71.3093 302.295 69.9925 301.099 69.1172C300.249 69.4101 299.639 70.2168 299.639 71.1661C299.639 72.3567 300.599 73.3231 301.787 73.3326Z" fill="#FC98A6"/>
<path d="M275.101 90.1063C273.521 88.8091 270.213 89.0018 268.756 89.2603C264.267 89.1193 254.923 88.9219 253.457 89.2603C251.624 89.6833 244.573 92.2214 243.163 93.3495C241.753 94.4775 228.146 110.622 227.653 110.763C227.159 110.904 224.511 110.598 224.621 110.763C226.313 113.302 231.037 115.981 232.094 115.91C232.94 115.854 233.293 114.782 233.293 114.289C233.786 113.795 234.858 112.371 238.863 108.084C243.868 102.726 254.655 98.1436 255.572 97.7911C256.488 97.4386 267.627 98.2141 272.351 97.7911C274.205 97.6251 277.474 94.8065 278.414 93.702C278.179 92.9029 276.68 91.4036 275.101 90.1063Z" fill="url(#paint9_linear)"/>
<path d="M233.374 114.206L227.874 110.577C227.758 110.691 227.682 110.756 227.653 110.764C227.403 110.836 226.602 110.792 225.886 110.754C225.186 110.716 224.567 110.682 224.622 110.764C226.314 113.302 231.037 115.981 232.095 115.911C232.941 115.855 233.293 114.783 233.293 114.289C233.319 114.264 233.345 114.236 233.374 114.206Z" fill="#FDFDFD"/>
<path d="M262.341 97.8122C262.071 97.8046 261.804 97.797 261.541 97.7896C258.488 97.7029 255.987 97.6319 255.573 97.7911C255.181 97.9418 252.987 98.8648 250.212 100.291L242.607 93.8899C242.862 93.6248 243.052 93.4394 243.164 93.3495C244.574 92.2215 251.625 89.6834 253.458 89.2604C253.574 89.2334 253.741 89.2099 253.951 89.1895L262.341 97.8122Z" fill="#C84D74" fill-opacity="0.65"/>
<path d="M272.348 80.0484C272.291 80.3868 273.264 82.2575 273.687 82.798C272.371 84.3255 269.105 87.6908 268.823 89.2137C276.225 89.7777 277.685 94.0733 278.27 93.8668C279.469 93.4439 285.814 80.26 286.307 79.7665C286.801 79.273 291.242 78.286 291.454 77.863C291.665 77.44 290.608 72.7163 290.467 72.3638C290.326 72.0113 279.821 74.9018 278.623 74.9018C277.424 74.9018 272.418 79.6254 272.348 80.0484Z" fill="url(#paint10_linear)"/>
<path d="M273.642 82.737L276.508 78.7793L273.28 82.168C273.414 82.3974 273.54 82.5975 273.642 82.737Z" fill="#ADD1E7"/>
<path d="M280.175 71.3057C279.761 70.4783 280.034 67.4281 281.021 65.877C282.008 64.3258 282.572 64.185 283.559 64.0439C283.559 64.0439 284.427 63.953 285.11 64.3259C285.886 64.749 286.168 65.8671 286.168 68.1331C286.168 70.3891 284.828 70.4596 284.546 70.6711C284.321 70.8404 284.123 72.9037 284.053 73.9142L279.629 75.5407C279.504 75.5864 279.391 75.4511 279.459 75.3369L281.26 72.2746C281.313 72.185 281.254 72.0659 281.154 72.04C280.878 71.9693 280.414 71.7828 280.175 71.3057Z" fill="#FFBBB6"/>
<path d="M285.664 64.8777C286.025 65.4909 286.168 66.5219 286.168 68.1335C286.168 69.3796 285.759 69.9589 285.346 70.2635C285.308 70.1723 285.335 69.9856 285.365 69.7747C285.409 69.4616 285.462 69.0952 285.322 68.909C285.198 68.744 284.921 68.7448 284.682 68.7455C284.466 68.7461 284.281 68.7466 284.264 68.627C284.238 68.4406 284.253 68.3145 284.267 68.2032C284.29 68.0199 284.308 67.8766 284.123 67.5695C283.912 67.2169 282.512 66.6999 281.303 67.1464C281.249 67.1666 281.198 67.186 281.15 67.2042C280.777 67.3454 280.6 67.4126 280.427 67.2225C280.583 66.7211 280.781 66.2548 281.021 65.8773C281.834 64.6007 282.359 64.2794 283.07 64.127C283.094 64.1228 283.116 64.1188 283.136 64.1148C283.487 64.0447 285.023 64.1141 285.664 64.8777Z" fill="#E18379"/>
<path d="M280.979 72.7534L281.261 72.2743C281.291 72.2226 281.285 72.161 281.254 72.1132C281.285 72.0925 281.304 72.0809 281.304 72.0809C281.304 72.0809 282.08 72.0104 282.926 71.5874C283.299 71.4008 283.548 71.2417 283.784 71.0919C284.082 70.9019 284.356 70.7269 284.829 70.5298C284.876 70.5102 284.908 70.5007 284.925 70.5C284.871 70.5232 284.821 70.5435 284.775 70.5621C284.676 70.6021 284.596 70.6344 284.547 70.6708C284.506 70.7021 284.465 70.7979 284.426 70.9397C283.43 71.6571 281.315 72.981 281.022 72.7859C281.006 72.7753 280.992 72.7644 280.979 72.7534Z" fill="#FD8F86"/>
<path d="M281.066 70.8456C281.028 70.8099 280.968 70.8119 280.932 70.8501C280.896 70.8883 280.898 70.9482 280.937 70.9839L281.066 70.8456ZM281.585 71.0817L281.566 70.9889H281.566L281.585 71.0817ZM282.327 70.7218C282.358 70.68 282.35 70.6207 282.308 70.5893C282.266 70.5579 282.207 70.5664 282.176 70.6082L282.327 70.7218ZM281.001 70.9148C280.937 70.9839 280.937 70.984 280.937 70.984C280.937 70.984 280.937 70.984 280.937 70.9841C280.937 70.9841 280.937 70.9841 280.937 70.9842C280.937 70.9843 280.937 70.9844 280.937 70.9845C280.938 70.9848 280.938 70.9851 280.938 70.9854C280.939 70.9862 280.94 70.9871 280.941 70.9882C280.944 70.9905 280.947 70.9936 280.952 70.9973C280.961 71.0048 280.974 71.015 280.99 71.0268C281.022 71.0503 281.069 71.0806 281.127 71.1086C281.243 71.1644 281.41 71.2131 281.603 71.1745L281.566 70.9889C281.426 71.017 281.301 70.9822 281.209 70.9379C281.163 70.9158 281.126 70.8919 281.101 70.8737C281.089 70.8646 281.079 70.8571 281.073 70.852C281.07 70.8495 281.068 70.8476 281.067 70.8465C281.066 70.846 281.066 70.8456 281.066 70.8454C281.066 70.8454 281.066 70.8453 281.066 70.8454C281.066 70.8454 281.066 70.8454 281.066 70.8454C281.066 70.8455 281.066 70.8455 281.066 70.8455C281.066 70.8455 281.066 70.8455 281.066 70.8456C281.066 70.8456 281.066 70.8456 281.001 70.9148ZM281.603 71.1745C281.831 71.1289 282.012 71.0153 282.134 70.9154C282.195 70.8652 282.243 70.8177 282.275 70.7825C282.292 70.7649 282.304 70.7502 282.313 70.7397C282.317 70.7345 282.32 70.7303 282.323 70.7273C282.324 70.7257 282.325 70.7245 282.326 70.7236C282.326 70.7232 282.326 70.7228 282.327 70.7225C282.327 70.7223 282.327 70.7222 282.327 70.7221C282.327 70.722 282.327 70.722 282.327 70.722C282.327 70.7219 282.327 70.7219 282.327 70.7219C282.327 70.7219 282.327 70.7218 282.251 70.665C282.176 70.6082 282.176 70.6082 282.176 70.6082C282.176 70.6082 282.176 70.6082 282.176 70.6082C282.176 70.6081 282.176 70.6081 282.176 70.6081C282.176 70.6081 282.176 70.6081 282.176 70.6081C282.176 70.6081 282.176 70.6082 282.175 70.6084C282.175 70.6087 282.175 70.6094 282.174 70.6103C282.172 70.6122 282.17 70.6153 282.167 70.6193C282.16 70.6274 282.15 70.6394 282.136 70.6543C282.109 70.6842 282.068 70.7253 282.014 70.7689C281.907 70.8564 281.754 70.9512 281.566 70.9889L281.603 71.1745Z" fill="#EB414E"/>
<path d="M280.245 66.7934C280.165 66.6338 279.963 65.9474 280.88 65.0309C281.796 64.1143 282.783 64.0439 283.136 63.9733C283.488 63.9028 284.828 63.8323 285.603 64.6079C286.415 65.4194 286.661 67.2869 286.379 68.4855C286.097 69.684 285.462 70.1775 285.462 70.1775C285.103 70.2536 285.533 69.1905 285.321 68.9085C285.086 68.5953 284.3 68.8793 284.264 68.6265C284.193 68.133 284.419 67.7805 284.123 67.2869C283.911 66.9344 282.783 66.1589 281.575 66.6055C280.951 66.836 280.527 67.3575 280.245 66.7934Z" fill="url(#paint11_linear)"/>
<path d="M244.052 83.585C247.377 83.3431 261.395 86.8753 268.939 89.2959L253.533 90.0558C253.411 90.0619 253.351 90.2066 253.437 90.2931C257.464 94.3379 265.417 102.195 265.417 102.583C265.417 103.076 261.607 111.293 261.043 110.87C260.602 110.539 260.89 107.748 261.254 106.37C261.269 106.313 261.25 106.253 261.201 106.219C254.622 101.575 242.141 92.8834 240.456 90.9173C238.341 88.4497 240.174 83.8671 244.052 83.585Z" fill="url(#paint12_linear)"/>
<path d="M263.693 100.628C264.745 101.725 265.416 102.469 265.416 102.582C265.416 103.075 261.606 111.292 261.042 110.869C260.601 110.538 260.889 107.747 261.253 106.369C261.266 106.32 261.253 106.269 261.219 106.234L263.693 100.628Z" fill="#FDFDFD"/>
<path d="M317.118 93.765C317.433 96.8407 319.538 105.21 321.277 108.993H326.072C326.26 108.923 327.312 107.583 330.02 102.789C333.404 96.7966 331.437 94.6845 329.738 95.6685C328.398 96.4441 325.649 103.353 325.437 103.283C325.085 103.165 325.508 86.2213 325.085 83.4717C324.662 80.7221 322.533 79.7358 321.7 81.2156C320.431 83.4717 321.019 91.9789 321.277 97.1491C320.784 95.4805 319.571 91.8896 318.669 90.8744C317.541 89.6054 316.836 91.0155 317.118 93.765Z" fill="url(#paint13_linear)"/>
<path d="M322.658 80.5348L322.961 94.1388L320.941 89.7156C320.944 89.8574 320.948 89.9996 320.952 90.1419L322.971 94.5605L323.291 108.937L320.1 99.1532V93.7039C320.045 93.5628 319.989 93.4229 319.933 93.2851V98.6423L317.373 90.793C317.336 90.8603 317.302 90.936 317.271 91.0196L319.851 98.9274L317.721 97.2255C317.74 97.311 317.758 97.3971 317.778 97.4839L319.945 99.216L321.932 105.309L319.403 103.744C319.427 103.825 319.451 103.905 319.475 103.985L322.013 105.555L323.134 108.993H323.459L323.281 101.021L325.28 97.6005C325.28 97.4911 325.28 97.3808 325.28 97.2698L323.274 100.703L323.137 94.552L325.256 87.0089C325.252 86.8116 325.249 86.6193 325.244 86.4328L323.125 93.9809L322.825 80.5304C322.769 80.528 322.713 80.5295 322.658 80.5348Z" fill="#98F2E8"/>
<path d="M328.894 96.6128L328.551 100.307L323.581 108.993H323.773L327.307 102.817L330.673 101.544C330.708 101.471 330.743 101.398 330.777 101.326L327.437 102.59L331.34 95.7691C331.299 95.7286 331.256 95.6918 331.212 95.6588L328.751 99.9583L329.087 96.3374C329.024 96.4233 328.96 96.5153 328.894 96.6128Z" fill="#98F2E8"/>
<path d="M329.387 107.667H319.462C319.378 107.667 319.313 107.736 319.322 107.82C319.435 108.868 320.105 114.964 320.363 115.07C320.645 115.186 328.33 115.187 328.612 115.07C328.888 114.955 329.502 110.061 329.527 107.806C329.528 107.728 329.465 107.667 329.387 107.667Z" fill="url(#paint14_linear)"/>
<g filter="url(#filter0_d)">
<path d="M234.347 52.8092C234.347 51.8888 235.093 51.1426 236.014 51.1426H255.523C256.443 51.1426 257.19 51.8888 257.19 52.8092V71.1906C257.19 72.111 256.443 72.8572 255.523 72.8572H236.014C235.093 72.8572 234.347 72.111 234.347 71.1906V52.8092Z" fill="url(#paint15_linear)"/>
</g>
<path d="M242.133 57.3607C242.197 56.8685 242.616 56.5 243.112 56.5H248.562C249.061 56.5 249.481 56.872 249.542 57.3669L250.64 66.3207C250.712 66.9091 250.253 67.4278 249.66 67.4278H241.957C241.362 67.4278 240.902 66.9049 240.978 66.3145L242.133 57.3607Z" fill="white" fill-opacity="0.62"/>
<path d="M250.285 63.4369L250.639 66.3216C250.711 66.9099 250.252 67.4287 249.659 67.4287H246.706C246.573 67.0893 246.5 66.7197 246.5 66.333C246.5 64.6762 247.843 63.333 249.5 63.333C249.772 63.333 250.035 63.3691 250.285 63.4369Z" fill="#FFFDFD" fill-opacity="0.81"/>
<path d="M244.537 58.6715C244.529 58.4505 244.343 58.2781 244.122 58.2864C243.901 58.2946 243.729 58.4805 243.737 58.7015L244.537 58.6715ZM246.111 60.4491L246.087 60.0494L246.111 60.4491ZM248.13 58.7367C248.158 58.5173 248.002 58.3169 247.783 58.2892C247.564 58.2615 247.363 58.4169 247.336 58.6364L248.13 58.7367ZM244.137 58.6865C243.737 58.7015 243.737 58.7017 243.737 58.7019C243.737 58.702 243.737 58.7022 243.737 58.7024C243.737 58.7027 243.737 58.7031 243.737 58.7035C243.737 58.7042 243.737 58.7051 243.737 58.7061C243.737 58.7081 243.737 58.7106 243.738 58.7135C243.738 58.7193 243.738 58.7269 243.739 58.7361C243.74 58.7547 243.743 58.7799 243.746 58.811C243.753 58.873 243.765 58.9587 243.786 59.0602C243.828 59.2611 243.908 59.5343 244.061 59.808C244.216 60.0835 244.449 60.3663 244.798 60.5695C245.15 60.774 245.591 60.8825 246.136 60.8488L246.087 60.0494C245.679 60.0746 245.399 59.9923 245.201 59.8773C245.002 59.7611 244.861 59.5959 244.76 59.416C244.658 59.2343 244.601 59.0447 244.57 58.8968C244.555 58.8238 244.546 58.7636 244.542 58.7232C244.54 58.7031 244.539 58.6881 244.538 58.6791C244.538 58.6746 244.537 58.6717 244.537 58.6704C244.537 58.6697 244.537 58.6695 244.537 58.6697C244.537 58.6698 244.537 58.67 244.537 58.6703C244.537 58.6704 244.537 58.6706 244.537 58.6708C244.537 58.6709 244.537 58.6711 244.537 58.6711C244.537 58.6713 244.537 58.6715 244.137 58.6865ZM246.136 60.8488C247.03 60.7934 247.537 60.2243 247.804 59.7235C247.937 59.4738 248.018 59.2307 248.065 59.052C248.089 58.9619 248.105 58.8862 248.115 58.8318C248.12 58.8045 248.123 58.7824 248.126 58.7663C248.127 58.7583 248.128 58.7517 248.129 58.7467C248.129 58.7443 248.129 58.7422 248.13 58.7405C248.13 58.7396 248.13 58.7389 248.13 58.7383C248.13 58.738 248.13 58.7377 248.13 58.7374C248.13 58.7373 248.13 58.7371 248.13 58.737C248.13 58.7368 248.13 58.7367 247.733 58.6865C247.336 58.6364 247.336 58.6362 247.336 58.6361C247.336 58.636 247.336 58.6359 247.336 58.6358C247.336 58.6356 247.336 58.6355 247.336 58.6354C247.336 58.6352 247.336 58.635 247.336 58.635C247.336 58.6349 247.336 58.6352 247.336 58.6359C247.335 58.6373 247.335 58.6402 247.334 58.6444C247.333 58.6529 247.331 58.6669 247.327 58.6856C247.32 58.7231 247.309 58.779 247.291 58.8473C247.254 58.9854 247.193 59.1666 247.097 59.3467C246.906 59.7053 246.603 60.0174 246.087 60.0494L246.136 60.8488Z" fill="#FFA273" fill-opacity="0.59"/>
<g filter="url(#filter1_d)">
<path d="M262.126 41.0506C262.126 40.0049 262.974 39.1572 264.019 39.1572H279.832C280.878 39.1572 281.725 40.0049 281.725 41.0506V55.8765C281.725 56.9221 280.878 57.7698 279.832 57.7698H264.019C262.974 57.7698 262.126 56.9221 262.126 55.8765V41.0506Z" fill="url(#paint16_linear)"/>
</g>
<path opacity="0.6" d="M266.498 46.0022C266.395 45.7258 266.6 45.4316 266.894 45.4316H275.162C275.243 45.4316 275.307 45.4988 275.303 45.5792L275.059 50.8226C275.042 51.1988 274.732 51.4948 274.355 51.4948H269.032C268.737 51.4948 268.474 51.3117 268.371 51.0357L266.498 46.0022Z" fill="white"/>
<path d="M270.869 51.9876C270.869 52.4549 270.49 52.8337 270.023 52.8337C269.556 52.8337 269.177 52.4549 269.177 51.9876C269.177 51.5204 269.556 51.1416 270.023 51.1416C270.49 51.1416 270.869 51.5204 270.869 51.9876Z" fill="white"/>
<path d="M274.253 51.9876C274.253 52.4549 273.874 52.8337 273.407 52.8337C272.939 52.8337 272.561 52.4549 272.561 51.9876C272.561 51.5204 272.939 51.1416 273.407 51.1416C273.874 51.1416 274.253 51.5204 274.253 51.9876Z" fill="white"/>
<path d="M277.073 43.6689H274.887L274.614 51.1045H268.813" stroke="white" stroke-width="0.800904" stroke-linecap="round" stroke-linejoin="round"/>
<g filter="url(#filter2_d)">
<path d="M255.358 39.158C255.358 43.5189 251.822 47.0542 247.461 47.0542C243.1 47.0542 239.565 43.5189 239.565 39.158C239.565 34.797 243.1 31.2617 247.461 31.2617C251.822 31.2617 255.358 34.797 255.358 39.158Z" fill="url(#paint17_linear)"/>
</g>
<path d="M246.263 40.2873L247.003 39.6176L247.305 39.335" stroke="#FDFDFD" stroke-width="0.480543"/>
<path d="M251.409 37.5379C251.409 38.9007 250.304 40.0055 248.941 40.0055C247.578 40.0055 246.474 38.9007 246.474 37.5379C246.474 36.1751 247.578 35.0703 248.941 35.0703C250.304 35.0703 251.409 36.1751 251.409 37.5379Z" fill="white" fill-opacity="0.63"/>
<path d="M246.73 40.3194L246.058 39.7482C245.866 39.5848 245.575 39.6249 245.434 39.8341L243.733 42.3572C243.609 42.5417 243.649 42.791 243.824 42.9276L243.874 42.9664C244.033 43.0898 244.257 43.0845 244.409 42.9536L246.732 40.9629C246.929 40.7936 246.929 40.4879 246.73 40.3194Z" fill="white"/>
<path d="M303.581 22.166V49.6619" stroke="url(#paint18_linear)" stroke-width="0.480543"/>
<path d="M304.992 53.1872C304.992 53.927 304.392 54.5267 303.652 54.5267C302.912 54.5267 302.313 53.927 302.313 53.1872C302.313 52.4474 302.912 51.8477 303.652 51.8477C304.392 51.8477 304.992 52.4474 304.992 53.1872Z" fill="#8FC0C7"/>
<path d="M299.969 52.4819L303.247 49.4149C303.399 49.2727 303.632 49.2622 303.796 49.3902L307.392 52.1927C307.703 52.4352 307.542 52.9339 307.148 52.9491L300.274 53.2135C299.882 53.2285 299.683 52.7494 299.969 52.4819Z" fill="#B7E4EB"/>
<circle cx="234.516" cy="79.6913" r="0.758654" fill="url(#paint19_linear)"/>
<circle cx="316.916" cy="72.0827" r="1.41667" fill="url(#paint20_linear)"/>
<circle cx="258.993" cy="35.2519" r="0.962808" fill="url(#paint21_linear)"/>
<circle cx="297.808" cy="90.4501" r="0.962808" fill="#FFBBB6"/>
<g filter="url(#filter3_d)">
<circle cx="319.166" cy="49.9993" r="0.833333" fill="url(#paint22_linear)"/>
</g>
<path d="M47.5 103.5C67.5 83.5 80.5 110 100 91" stroke="#79ECC1" stroke-width="20"/>
<path d="M21 46.2C21 49.6 22.68 53 27.04 53C30.76 53 32.66 50.62 32.78 47.82H30.78C30.44 49.98 29.76 51 27.04 51C24.16 51 23 49.62 23 46.2C23 42.78 24.16 41.4 27.04 41.4C29.76 41.4 30.44 42.42 30.78 44.58H32.78C32.66 41.78 30.76 39.4 27.04 39.4C22.68 39.4 21 42.8 21 46.2ZM43.7691 43H41.3491L38.6091 47.02H36.9891V43H34.9891V53H36.9891V49.02H38.6091L41.3491 53H43.7691L40.3491 48.02L43.7691 43ZM52.5703 43L48.0903 49.16H47.7703V43H45.7703V53H47.7703L52.2503 46.84H52.5703V53H54.5703V43H52.5703ZM66.2009 51V43H58.9609V43.06C58.9609 47.56 58.9609 48.86 57.2209 51H56.1609V56.2H58.1609V53H66.2009V56.2H68.2009V51H66.2009ZM59.4209 51C60.7209 49.22 60.9409 48 60.9609 45H64.2009V51H59.4209ZM78.9839 43H76.5639L73.8239 47.02H72.2039V43H70.2039V53H72.2039V49.02H73.8239L76.5639 53H78.9839L75.5639 48.02L78.9839 43ZM88.3444 51V43H81.1444V45H86.3444V47.2C85.7444 46.6 84.9644 46.2 83.5644 46.2C81.1244 46.2 79.9844 47.76 79.9844 49.6C79.9844 51.44 81.1244 53 83.5644 53C84.9644 53 85.7444 52.6 86.3444 52V53H89.5444V51H88.3444ZM84.1644 51C82.7044 51 81.9844 50.7 81.9844 49.6C81.9844 48.5 82.7044 48.2 84.1644 48.2C85.6244 48.2 86.3444 48.5 86.3444 49.6C86.3444 50.7 85.6244 51 84.1644 51ZM30.6 68H21.2V78H23.2V70H28.6V78H30.6V68ZM37.9816 68C36.5816 68 35.6016 68.54 35.0016 69.2V68H33.0016V81.2H35.0016V76.8C35.6016 77.46 36.5816 78 37.9816 78C41.2216 78 42.3616 75.94 42.3616 73C42.3616 70.06 41.2216 68 37.9816 68ZM37.6816 76C35.7216 76 35.0016 75.4 35.0016 73C35.0016 70.6 35.7216 70 37.6816 70C39.6416 70 40.3616 70.6 40.3616 73C40.3616 75.4 39.6416 76 37.6816 76ZM50.9688 68L46.4888 74.16H46.1688V68H44.1688V78H46.1688L50.6488 71.84H50.9688V78H52.9688V68H50.9688ZM67.337 68C65.937 68 64.957 68.54 64.357 69.2V68H62.357V81.2H64.357V76.8C64.957 77.46 65.937 78 67.337 78C70.577 78 71.717 75.94 71.717 73C71.717 70.06 70.577 68 67.337 68ZM67.037 76C65.077 76 64.357 75.4 64.357 73C64.357 70.6 65.077 70 67.037 70C68.997 70 69.717 70.6 69.717 73C69.717 75.4 68.997 76 67.037 76ZM81.9642 72.8C81.9642 69.86 80.7242 68 77.6442 68C74.5642 68 73.3242 70.06 73.3242 73C73.3242 74.78 73.8842 78 78.4042 78C79.1642 78 79.7242 78 81.2842 77.6V75.64C79.9842 76 79.2042 76 78.4042 76C76.2242 76 75.5842 75.14 75.4042 74H81.9642V72.8ZM77.6442 70C79.2242 70 79.8842 70.54 79.9642 72H75.3442C75.4642 70.66 76.1442 70 77.6442 70ZM90.8134 68H83.9734V78H85.9734V70H90.8134V68ZM99.8164 68L95.3364 74.16H95.0164V68H93.0164V78H95.0164L99.4964 71.84H99.8164V78H101.816V68H99.8164ZM103.617 73C103.617 75.94 105.157 78 108.097 78C110.717 78 112.257 76.38 112.257 74.2H110.257C110.177 75.24 109.757 76 108.197 76C106.337 76 105.617 75.4 105.617 73C105.617 70.6 106.337 70 108.197 70C109.757 70 110.177 70.76 110.257 71.8H112.257C112.257 69.62 110.717 68 108.097 68C105.157 68 103.617 70.06 103.617 73ZM122.426 68H113.266V70H116.846V78H118.846V70H122.426V68ZM129.407 68C128.007 68 127.027 68.54 126.427 69.2V68H124.427V81.2H126.427V76.8C127.027 77.46 128.007 78 129.407 78C132.647 78 133.787 75.94 133.787 73C133.787 70.06 132.647 68 129.407 68ZM129.107 76C127.147 76 126.427 75.4 126.427 73C126.427 70.6 127.147 70 129.107 70C131.067 70 131.787 70.6 131.787 73C131.787 75.4 131.067 76 129.107 76ZM143.755 76V68H136.555V70H141.755V72.2C141.155 71.6 140.375 71.2 138.975 71.2C136.535 71.2 135.395 72.76 135.395 74.6C135.395 76.44 136.535 78 138.975 78C140.375 78 141.155 77.6 141.755 77V78H144.955V76H143.755ZM139.575 76C138.115 76 137.395 75.7 137.395 74.6C137.395 73.5 138.115 73.2 139.575 73.2C141.035 73.2 141.755 73.5 141.755 74.6C141.755 75.7 141.035 76 139.575 76ZM158.762 76H156.362V68H154.362V76H148.962V68H146.962V78H156.762V81.2H158.762V76ZM167.16 68L162.68 74.16H162.36V68H160.36V78H162.36L166.84 71.84H167.16V78H169.16V68H167.16ZM178.352 68L173.872 74.16H173.552V68H171.552V78H173.552L178.032 71.84H178.352V78H180.352V68H178.352ZM31.24 101V93H24V93.06C24 97.56 24 98.86 22.26 101H21.2V106.2H23.2V103H31.24V106.2H33.24V101H31.24ZM24.46 101C25.76 99.22 25.98 98 26 95H29.24V101H24.46ZM39.6277 103C42.6677 103 44.4077 100.94 44.4077 98C44.4077 95.06 42.6677 93 39.6277 93C36.5877 93 34.8477 95.06 34.8477 98C34.8477 100.94 36.5877 103 39.6277 103ZM39.6277 101C37.5677 101 36.8477 100.4 36.8477 98C36.8477 95.6 37.5677 95 39.6277 95C41.6877 95 42.4077 95.6 42.4077 98C42.4077 100.4 41.6877 101 39.6277 101ZM58.047 89.4H53.407V91.4H56.047V103H58.047V89.4ZM65.5578 93.8C64.6978 93.8 63.8778 93.98 63.1178 94.42L63.5378 91.4H68.7778V89.4H61.7778L60.7778 96.92H62.7778C63.0978 96.1 63.6578 95.8 65.0578 95.8C67.0178 95.8 67.7378 96.4 67.7378 98.4C67.7378 100.4 67.0178 101 65.0578 101C63.6178 101 62.8578 100.46 62.5378 99.48H60.4578C60.7978 101.66 62.2578 103 65.0578 103C68.5978 103 69.7378 100.94 69.7378 98.4C69.7378 95.86 68.5978 93.8 65.5578 93.8ZM76.3175 97.8C78.9575 97.8 80.4975 96.14 80.4975 93.6C80.4975 91.06 78.9575 89.4 76.3175 89.4C73.6775 89.4 72.1375 91.06 72.1375 93.6C72.1375 96.14 73.6775 97.8 76.3175 97.8ZM86.0375 89.4H83.9175L79.0175 103H81.1375L86.0375 89.4ZM76.3175 95.8C74.8575 95.8 74.1375 95.2 74.1375 93.6C74.1375 92 74.8575 91.4 76.3175 91.4C77.7775 91.4 78.4975 92 78.4975 93.6C78.4975 95.2 77.7775 95.8 76.3175 95.8ZM88.7375 103C91.3775 103 92.9175 101.34 92.9175 98.8C92.9175 96.26 91.3775 94.6 88.7375 94.6C86.0975 94.6 84.5575 96.26 84.5575 98.8C84.5575 101.34 86.0975 103 88.7375 103ZM88.7375 101C87.2775 101 86.5575 100.4 86.5575 98.8C86.5575 97.2 87.2775 96.6 88.7375 96.6C90.1975 96.6 90.9175 97.2 90.9175 98.8C90.9175 100.4 90.1975 101 88.7375 101Z" fill="#1C294D" fill-opacity="0.8"/>
<defs>
<filter id="filter0_d" x="225.827" y="43.5692" width="39.8827" height="38.7547" filterUnits="userSpaceOnUse" color-interpolation-filters="sRGB">
<feFlood flood-opacity="0" result="BackgroundImageFix"/>
<feColorMatrix in="SourceAlpha" type="matrix" values="0 0 0 0 0 0 0 0 0 0 0 0 0 0 0 0 0 0 127 0"/>
<feOffset dy="0.946667"/>
<feGaussianBlur stdDeviation="4.26"/>
<feColorMatrix type="matrix" values="0 0 0 0 0 0 0 0 0 0 0 0 0 0 0 0 0 0 0.1 0"/>
<feBlend mode="normal" in2="BackgroundImageFix" result="effect1_dropShadow"/>
<feBlend mode="normal" in="SourceGraphic" in2="effect1_dropShadow" result="shape"/>
</filter>
<filter id="filter1_d" x="253.606" y="31.5839" width="36.6396" height="35.6526" filterUnits="userSpaceOnUse" color-interpolation-filters="sRGB">
<feFlood flood-opacity="0" result="BackgroundImageFix"/>
<feColorMatrix in="SourceAlpha" type="matrix" values="0 0 0 0 0 0 0 0 0 0 0 0 0 0 0 0 0 0 127 0"/>
<feOffset dy="0.946667"/>
<feGaussianBlur stdDeviation="4.26"/>
<feColorMatrix type="matrix" values="0 0 0 0 0 0 0 0 0 0 0 0 0 0 0 0 0 0 0.1 0"/>
<feBlend mode="normal" in2="BackgroundImageFix" result="effect1_dropShadow"/>
<feBlend mode="normal" in="SourceGraphic" in2="effect1_dropShadow" result="shape"/>
</filter>
<filter id="filter2_d" x="231.045" y="23.6884" width="32.8325" height="32.8325" filterUnits="userSpaceOnUse" color-interpolation-filters="sRGB">
<feFlood flood-opacity="0" result="BackgroundImageFix"/>
<feColorMatrix in="SourceAlpha" type="matrix" values="0 0 0 0 0 0 0 0 0 0 0 0 0 0 0 0 0 0 127 0"/>
<feOffset dy="0.946667"/>
<feGaussianBlur stdDeviation="4.26"/>
<feColorMatrix type="matrix" values="0 0 0 0 0 0 0 0 0 0 0 0 0 0 0 0 0 0 0.1 0"/>
<feBlend mode="normal" in2="BackgroundImageFix" result="effect1_dropShadow"/>
<feBlend mode="normal" in="SourceGraphic" in2="effect1_dropShadow" result="shape"/>
</filter>
<filter id="filter3_d" x="311.714" y="43.1357" width="14.904" height="14.904" filterUnits="userSpaceOnUse" color-interpolation-filters="sRGB">
<feFlood flood-opacity="0" result="BackgroundImageFix"/>
<feColorMatrix in="SourceAlpha" type="matrix" values="0 0 0 0 0 0 0 0 0 0 0 0 0 0 0 0 0 0 127 0"/>
<feOffset dy="0.588324"/>
<feGaussianBlur stdDeviation="3.30932"/>
<feColorMatrix type="matrix" values="0 0 0 0 0.396078 0 0 0 0 0.658824 0 0 0 0 0.988235 0 0 0 0.15 0"/>
<feBlend mode="normal" in2="BackgroundImageFix" result="effect1_dropShadow"/>
<feBlend mode="normal" in="SourceGraphic" in2="effect1_dropShadow" result="shape"/>
</filter>
<linearGradient id="paint0_linear" x1="233.471" y1="70.9904" x2="240.627" y2="47.2682" gradientUnits="userSpaceOnUse">
<stop stop-color="#FFD9F0"/>
<stop offset="1" stop-color="#EFF6FF"/>
</linearGradient>
<linearGradient id="paint1_linear" x1="227.223" y1="93.1659" x2="237.389" y2="107.666" gradientUnits="userSpaceOnUse">
<stop stop-color="#A7D9E0"/>
<stop offset="1" stop-color="#E3DBFB"/>
</linearGradient>
<linearGradient id="paint2_linear" x1="244.722" y1="92.6655" x2="240.639" y2="101.416" gradientUnits="userSpaceOnUse">
<stop stop-color="#76B0B8"/>
<stop offset="1" stop-color="#C9C2E1"/>
</linearGradient>
<linearGradient id="paint3_linear" x1="234.306" y1="101.583" x2="229.139" y2="110.167" gradientUnits="userSpaceOnUse">
<stop stop-color="#76B0B8"/>
<stop offset="1" stop-color="#C9C2E2"/>
</linearGradient>
<linearGradient id="paint4_linear" x1="220.353" y1="83.574" x2="220.353" y2="115.582" gradientUnits="userSpaceOnUse">
<stop stop-color="#A7D9E0"/>
<stop offset="1" stop-color="#E5DBFC"/>
</linearGradient>
<linearGradient id="paint5_linear" x1="227.694" y1="89.165" x2="227.694" y2="97.2023" gradientUnits="userSpaceOnUse">
<stop stop-color="#68D7FA"/>
<stop offset="1" stop-color="#77E9C9"/>
</linearGradient>
<linearGradient id="paint6_linear" x1="225.085" y1="89.166" x2="225.085" y2="97.2033" gradientUnits="userSpaceOnUse">
<stop stop-color="#A58AFF"/>
<stop offset="1" stop-color="#5EB2FF"/>
</linearGradient>
<linearGradient id="paint7_linear" x1="284.721" y1="112" x2="276.805" y2="73.0829" gradientUnits="userSpaceOnUse">
<stop stop-color="#B483FF"/>
<stop offset="1" stop-color="#68ADFF"/>
</linearGradient>
<linearGradient id="paint8_linear" x1="270.305" y1="67.833" x2="275.805" y2="69.1664" gradientUnits="userSpaceOnUse">
<stop stop-color="#FF956F"/>
<stop offset="1" stop-color="#FFC380"/>
</linearGradient>
<linearGradient id="paint9_linear" x1="255.138" y1="90.2491" x2="257.138" y2="106.166" gradientUnits="userSpaceOnUse">
<stop stop-color="#CE5379"/>
<stop offset="1" stop-color="#F49274"/>
</linearGradient>
<linearGradient id="paint10_linear" x1="281.805" y1="81.1663" x2="282.305" y2="95.6663" gradientUnits="userSpaceOnUse">
<stop stop-color="#F3F6F8"/>
<stop offset="1" stop-color="#AAD7F5"/>
</linearGradient>
<linearGradient id="paint11_linear" x1="283.33" y1="63.9326" x2="283.472" y2="66.7489" gradientUnits="userSpaceOnUse">
<stop stop-color="#954040"/>
<stop offset="1" stop-color="#612828"/>
</linearGradient>
<linearGradient id="paint12_linear" x1="239.639" y1="82.3325" x2="259.389" y2="106.749" gradientUnits="userSpaceOnUse">
<stop stop-color="#C94B79"/>
<stop offset="1" stop-color="#F59474"/>
</linearGradient>
<linearGradient id="paint13_linear" x1="327.556" y1="88.5831" x2="322.306" y2="112.416" gradientUnits="userSpaceOnUse">
<stop stop-color="#68D7FA"/>
<stop offset="1" stop-color="#7AEDBE"/>
</linearGradient>
<linearGradient id="paint14_linear" x1="324.417" y1="107.667" x2="324.468" y2="116.365" gradientUnits="userSpaceOnUse">
<stop stop-color="#FF8C6B"/>
<stop offset="1" stop-color="#FFCB82"/>
</linearGradient>
<linearGradient id="paint15_linear" x1="245.768" y1="51.1426" x2="245.768" y2="72.8572" gradientUnits="userSpaceOnUse">
<stop stop-color="#FF906D"/>
<stop offset="1" stop-color="#FFCB82"/>
</linearGradient>
<linearGradient id="paint16_linear" x1="271.926" y1="39.1572" x2="267.139" y2="57.8329" gradientUnits="userSpaceOnUse">
<stop stop-color="#7AEDC0"/>
<stop offset="1" stop-color="#68D7F9"/>
</linearGradient>
<linearGradient id="paint17_linear" x1="247.461" y1="31.2617" x2="247.461" y2="47.0542" gradientUnits="userSpaceOnUse">
<stop stop-color="#B681FF"/>
<stop offset="1" stop-color="#64AFFF"/>
</linearGradient>
<linearGradient id="paint18_linear" x1="297.429" y1="46.4994" x2="297.443" y2="25.8324" gradientUnits="userSpaceOnUse">
<stop stop-color="#A7D9E0"/>
<stop offset="1" stop-color="#A7D9E0" stop-opacity="0"/>
</linearGradient>
<linearGradient id="paint19_linear" x1="234.516" y1="78.9326" x2="234.516" y2="80.4499" gradientUnits="userSpaceOnUse">
<stop stop-color="#FFB798"/>
<stop offset="1" stop-color="#FFDF6F"/>
</linearGradient>
<linearGradient id="paint20_linear" x1="316.916" y1="70.666" x2="316.916" y2="73.4993" gradientUnits="userSpaceOnUse">
<stop stop-color="#FFB798"/>
<stop offset="1" stop-color="#FFDF6F"/>
</linearGradient>
<linearGradient id="paint21_linear" x1="258.993" y1="34.2891" x2="258.993" y2="36.2147" gradientUnits="userSpaceOnUse">
<stop stop-color="#FFB798"/>
<stop offset="1" stop-color="#FF6F9A"/>
</linearGradient>
<linearGradient id="paint22_linear" x1="319.166" y1="49.166" x2="318.619" y2="50.8327" gradientUnits="userSpaceOnUse">
<stop stop-color="#68D7FA"/>
<stop offset="1" stop-color="#7EF1B3"/>
</linearGradient>
</defs>
</svg>
